<svg width="193" height="193" viewBox="0 0 193 193" fill="none" xmlns="http://www.w3.org/2000/svg">
<path d="M191 96.5C191 148.691 148.691 191 96.5 191C44.3091 191 2 148.691 2 96.5C2 44.3091 44.3091 2 96.5 2C148.691 2 191 44.3091 191 96.5ZM70.809 96.5C70.809 110.689 82.3113 122.191 96.5 122.191C110.689 122.191 122.191 110.689 122.191 96.5C122.191 82.3113 110.689 70.809 96.5 70.809C82.3113 70.809 70.809 82.3113 70.809 96.5Z" fill="white" stroke="black" stroke-width="4"/>
<path d="M45.827 67.2355L45.5271 67.3989C45.5634 67.4656 45.5401 67.5258 45.4571 67.5797C45.408 67.6324 45.3495 67.6599 45.2817 67.6623C45.0594 67.6192 44.908 67.6585 44.8274 67.7802C44.7643 67.9182 44.6158 68.0423 44.382 68.1525L44.3574 68.1788C44.3084 68.2315 44.2599 68.3011 44.212 68.3877C44.198 68.4731 44.1577 68.534 44.0911 68.5703L43.7612 68.6074C43.7788 68.6237 43.7712 68.6495 43.7385 68.6846C43.6894 68.7373 43.6315 68.7818 43.5649 68.8181C43.4982 68.8544 43.4643 68.8556 43.4631 68.8216L42.8089 69.0485L42.7861 69.1257L42.2001 69.1209C42.2013 69.1548 42.1937 69.1805 42.1773 69.1981C42.1446 69.2332 42.0856 69.2438 42.0002 69.2298C41.9323 69.2322 41.8902 69.2422 41.8738 69.2597C41.6879 69.2833 41.4856 69.3244 41.2669 69.383C41.0821 69.4405 40.8886 69.4897 40.6862 69.5308C40.6523 69.532 40.609 69.5081 40.5563 69.459C40.5212 69.4263 40.4785 69.4193 40.4282 69.438C40.3265 69.4416 40.2165 69.454 40.0984 69.4751C39.9803 69.4963 39.8779 69.4829 39.7914 69.435L39.7195 69.5649C39.4282 69.4903 39.1381 69.4495 38.8492 69.4427C38.5603 69.4359 38.2923 69.301 38.0453 69.0381L37.9962 69.0907L37.5455 69.3104L37.4664 69.2368C37.4501 69.2543 37.4343 69.2888 37.4192 69.3403C37.3864 69.3754 37.3367 69.4111 37.2701 69.4474C37.1029 69.5213 36.9351 69.5781 36.7667 69.618C36.5807 69.6415 36.4017 69.6224 36.2297 69.5605C36.1607 69.529 36.1098 69.5308 36.0771 69.5659C36.0607 69.5835 36.0356 69.5928 36.0017 69.594C35.8812 69.5473 35.7531 69.5264 35.6174 69.5312C35.4817 69.5359 35.3694 69.4805 35.2804 69.3647L34.6956 68.6721C34.6685 68.3844 34.6877 68.2054 34.7531 68.1352C34.8186 68.065 34.9303 68.1035 35.0883 68.2508L35.2044 68.6542L35.545 68.9224C35.6128 68.92 35.6795 68.8837 35.7449 68.8135C35.8104 68.7432 35.8507 68.6824 35.8659 68.6309L35.9993 68.8045L36.2819 68.871L36.2537 68.7955L36.4537 68.6866L36.7607 68.7267C36.7232 68.6262 36.756 68.591 36.8589 68.6214C36.9443 68.6353 36.987 68.6423 36.987 68.6423L37.0044 68.4125C36.9002 68.3482 36.7961 68.284 36.6919 68.2197C36.5702 68.1391 36.4655 68.0579 36.3777 67.9761C36.2548 67.8615 36.1752 67.7709 36.1389 67.7043C35.9948 67.4716 35.8619 67.315 35.7402 67.2344C35.7402 67.2344 35.7115 67.142 35.654 66.9572C35.579 66.7561 35.5567 66.6041 35.587 66.5011L35.6517 66.1677L35.7798 66.1887C35.781 66.2226 35.8009 66.3068 35.8396 66.4413C35.8783 66.5757 35.8989 66.6769 35.9013 66.7447C36.0689 67.1634 36.3182 67.4942 36.6495 67.7372C36.667 67.7536 36.6933 67.7782 36.7285 67.8109C36.7624 67.8097 36.7975 67.8424 36.8338 67.909L37.2025 68.2527C37.2528 68.2339 37.3394 68.2818 37.4623 68.3963C37.5676 68.4945 37.6279 68.5179 37.6431 68.4664C37.7073 68.3622 37.7991 68.3165 37.9184 68.3293C38.0365 68.3082 38.0593 68.231 37.9867 68.0977L38.3692 68.1097L38.6146 67.8463C38.6334 67.8966 38.7094 67.8854 38.8427 67.8128C38.9748 67.7062 39.0981 67.5915 39.2126 67.4686C39.3272 67.3457 39.3844 67.2843 39.3844 67.2843L39.6634 67.249C39.6458 67.2326 39.6879 67.2226 39.7897 67.219L39.8142 67.1927C39.8633 67.14 39.8948 67.071 39.9088 66.9856C39.9391 66.8826 39.9707 66.8136 40.0034 66.7785C40.1028 66.7071 40.2197 66.652 40.3542 66.6133C40.505 66.557 40.5787 66.478 40.5751 66.3763L40.8504 66.2392L40.9396 65.8795C41.0075 65.8771 41.108 65.8396 41.2413 65.7669C41.2916 65.7482 41.3495 65.7037 41.4149 65.6335C41.5622 65.4754 41.6334 65.3286 41.6286 65.1929L41.8585 65.2103C42.07 64.9481 42.2991 64.7023 42.5457 64.4729C42.7912 64.2095 43.0202 63.9637 43.2329 63.7354C43.4129 63.5423 43.5847 63.3579 43.7484 63.1824C43.9108 62.9729 44.065 62.7721 44.2111 62.5802C44.2602 62.5275 44.3011 62.4836 44.3338 62.4485C44.349 62.397 44.3647 62.3625 44.3811 62.345C44.4956 62.2221 44.5914 62.0489 44.6685 61.8254C44.7455 61.6019 44.8331 61.4375 44.9313 61.3322C44.964 61.2971 45.0113 61.1935 45.0731 61.0215C45.1338 60.8156 45.2186 60.8126 45.3275 61.0126L45.2138 61.3986L45.1138 61.4531C45.115 61.487 45.0853 61.607 45.0246 61.8129C44.9628 61.9849 44.9061 62.0633 44.8546 62.0481L44.4182 62.6748C44.3703 62.7614 44.2897 62.8831 44.1763 63.0399C44.063 63.1967 43.9976 63.267 43.98 63.2506L43.8118 63.5367C43.7942 63.5204 43.7691 63.5297 43.7364 63.5649C43.6709 63.6351 43.5991 63.765 43.5208 63.9545C43.459 64.1265 43.4111 64.2131 43.3772 64.2143C43.3257 64.1991 43.2439 64.2869 43.1317 64.4777C43.0184 64.6345 42.8963 64.7831 42.7654 64.9236C42.569 65.1343 42.4276 65.2157 42.341 65.1678L42.2236 65.4521C42.2212 65.3843 42.1873 65.3855 42.1219 65.4557C42.0552 65.492 42.0143 65.5359 41.9991 65.5874L42.1063 65.7365C42.0911 65.7879 42.0584 65.823 42.0081 65.8418C41.9578 65.8606 41.9075 65.8793 41.8573 65.8981C41.7064 65.9543 41.5246 66.0966 41.3119 66.3248C41.0992 66.5531 40.8859 66.7644 40.672 66.9587C40.4581 67.153 40.2915 67.2438 40.1722 67.231L40.0812 67.5399C40.0157 67.6101 39.9088 67.7073 39.7603 67.8314C39.6107 67.9216 39.4943 67.9936 39.4113 68.0475C39.2617 68.1376 39.0957 68.2454 38.9133 68.3707C38.7473 68.4784 38.6076 68.6107 38.4942 68.7675L38.8277 68.8322L38.8803 68.8813C39.0651 68.8238 39.2692 68.8336 39.4927 68.9106C39.715 68.9537 39.8903 68.8711 40.0189 68.6628L40.4349 68.9029L40.7629 68.8149C40.7617 68.781 40.7693 68.7553 40.7856 68.7377C40.8347 68.685 40.9517 68.63 41.1364 68.5725C41.3212 68.5151 41.4639 68.4676 41.5644 68.4301L41.5854 68.302L41.9451 68.3912C41.9439 68.3573 41.9515 68.3315 41.9679 68.314C42.017 68.2613 42.0918 68.2162 42.1924 68.1787C42.2929 68.1412 42.3426 68.1055 42.3414 68.0716L42.5659 67.9363L42.685 67.7028C42.8558 67.7308 42.9757 67.7605 43.0448 67.7921C43.1138 67.8236 43.1735 67.83 43.2237 67.8112C43.3407 67.7562 43.367 67.7807 43.3028 67.8848C43.2549 67.9714 43.2485 68.0311 43.2836 68.0638L43.3608 68.0866L43.5817 67.8495C43.529 67.8005 43.5424 67.6981 43.6218 67.5425C43.7352 67.3856 43.8573 67.237 43.9882 67.0965C44.1845 66.8859 44.3166 66.7793 44.3845 66.7769C44.485 66.7394 44.5014 66.7219 44.4335 66.7242L44.6281 66.4627L44.907 66.4274C44.8871 66.3432 44.8935 66.2835 44.9262 66.2484C44.9753 66.1957 45.025 66.16 45.0753 66.1413C45.1595 66.1213 45.2016 66.1113 45.2016 66.1113C45.2519 66.0926 45.2495 66.0247 45.1944 65.9078C45.1733 65.7897 45.2042 65.7037 45.2872 65.6498L45.4117 65.569C45.5262 65.4461 45.6232 65.3069 45.7026 65.1512C45.7984 64.978 45.9072 64.9318 46.0289 65.0124L46.069 64.7053L46.2181 64.5982L46.3797 64.8472C46.4499 64.9126 46.4932 64.9366 46.5095 64.919C46.5423 64.8839 46.5217 64.7827 46.4479 64.6155C46.408 64.4471 46.432 64.4038 46.5197 64.4856L46.4809 64.1049C46.5651 64.085 46.6481 64.0311 46.7299 63.9433C46.8608 63.8029 46.9308 63.6221 46.94 63.401C46.9668 63.1963 47.0444 62.9898 47.1729 62.7815L47.2501 62.8042C47.2653 62.7528 47.2804 62.7013 47.2956 62.6498C47.3447 62.5971 47.3868 62.5872 47.4219 62.6199L47.6656 62.3056C47.6783 62.1863 47.7232 62.0149 47.8003 61.7915C47.8937 61.5504 47.9555 61.3784 47.9859 61.2755L47.9051 61.151C47.9051 61.151 47.946 61.1071 48.0278 61.0193C48.1084 60.8976 48.1481 60.8198 48.1469 60.7858L48.1206 60.7613C48.0855 60.7286 48.0328 60.6795 47.9625 60.614C47.8748 60.5322 47.8724 60.4644 47.9554 60.4105L48.1571 60.3525C48.2517 60.1454 48.2796 59.9746 48.2409 59.8401C48.201 59.6717 48.2026 59.4763 48.2458 59.2541C48.2597 59.1687 48.2567 59.0839 48.2368 58.9997C48.2332 58.8979 48.2554 58.8037 48.3032 58.7171C48.3196 58.6996 48.3705 58.6978 48.4559 58.7118C48.5576 58.7082 48.598 58.6473 48.5768 58.5292L48.338 58.2574L48.4799 57.9468L48.4182 57.6433C48.4182 57.6433 48.427 57.6515 48.4446 57.6678C48.4609 57.6503 48.4773 57.6327 48.4937 57.6151C48.5591 57.5449 48.5625 57.4005 48.5039 57.1818C48.4452 56.9631 48.365 56.8555 48.2632 56.8591L48.219 56.3258C48.0973 56.2452 47.9983 56.0873 47.9221 55.8523C47.8623 55.5997 47.7182 55.367 47.49 55.1543C47.3495 55.0234 47.1418 54.9118 46.8668 54.8196C46.5919 54.7275 46.2176 54.7067 45.7439 54.7573L45.5422 54.8154C45.2054 54.8952 44.92 54.9901 44.6862 55.1003C44.4511 55.1765 44.167 55.3054 43.8338 55.4869C43.8338 55.4869 43.7917 55.4969 43.7075 55.5168L42.8095 56.0579C42.6914 56.0791 42.5003 56.1962 42.2361 56.4093C41.9719 56.6223 41.7901 56.7646 41.6907 56.836C41.6405 56.8548 41.5732 56.8741 41.489 56.8941C41.4212 56.8965 41.3972 56.9398 41.4172 57.024L41.0646 57.1383C41.0494 57.1898 41.0173 57.2418 40.9682 57.2945C40.9355 57.3296 40.894 57.3566 40.8437 57.3753C40.8098 57.3765 40.7519 57.421 40.6701 57.5088C40.538 57.6153 40.2972 57.7681 39.9476 57.9673C39.6144 58.1488 39.449 58.2735 39.4513 58.3414L38.4708 58.707L38.4235 58.8106L38.071 58.9249C38.1903 58.9377 38.1751 58.9892 38.0255 59.0793C37.8583 59.1532 37.6659 59.2363 37.4484 59.3289C37.2134 59.4051 37.0462 59.4789 36.9468 59.5504C36.5457 59.7343 36.1165 59.8428 35.6592 59.8759C35.2182 59.8915 34.831 59.7438 34.4974 59.4329C34.1989 59.1548 34.0046 58.9409 33.9144 58.7912C33.8242 58.6415 33.7598 58.4995 33.7211 58.365C33.6987 58.213 33.6243 58.0288 33.4978 57.8125C33.4779 57.7283 33.4661 57.6353 33.4625 57.5335C33.4577 57.3979 33.4284 57.2885 33.3745 57.2055L33.4392 56.8721C33.3678 56.7727 33.3209 56.647 33.2985 56.495C33.2926 56.3254 33.3048 56.1891 33.3351 56.0861C33.4424 55.7597 33.5041 55.3415 33.5201 54.8315C33.5349 54.2876 33.6118 53.8179 33.7506 53.4225C33.781 53.3195 33.8119 53.2335 33.8434 53.1645C33.8574 53.0791 33.8883 52.9931 33.9362 52.9065L34.0135 52.9292C34.108 52.7221 34.2745 52.3851 34.5127 51.9182C34.7334 51.435 34.9869 50.9166 35.273 50.3631C35.5755 49.7921 35.8629 49.2725 36.1351 48.8045C36.4236 48.3188 36.6742 47.9619 36.887 47.7336C37.0342 47.5756 37.1424 47.5124 37.2114 47.5439L37.3216 47.0561C37.3555 47.0549 37.4058 47.0361 37.4724 46.9998C37.5215 46.9471 37.5454 46.9038 37.5442 46.8699L37.8687 46.6802C37.899 46.5772 37.9306 46.5082 37.9633 46.4731C38.0615 46.3677 38.2029 46.2863 38.3877 46.2289C38.5713 46.1375 38.687 46.0485 38.7349 45.9619C38.7816 45.8414 38.8301 45.7718 38.8804 45.753C38.9294 45.7003 38.9785 45.6477 39.0276 45.595L39.1258 45.4896C39.1749 45.437 39.2327 45.3925 39.2994 45.3562C39.3648 45.2859 39.4654 45.2484 39.6011 45.2436L39.7501 45.1365C39.8519 45.1329 39.9379 45.1639 40.0081 45.2293C40.1111 45.2596 40.2531 45.1952 40.4343 45.036C40.6155 44.8768 40.757 44.7954 40.8587 44.7918C41.095 44.7495 41.3442 44.8341 41.6064 45.0456C41.8673 45.2232 42.0944 45.402 42.2875 45.582C42.4643 45.7795 42.6277 46.0794 42.7777 46.4817C42.9266 46.85 42.99 47.2044 42.968 47.5448C42.9564 47.698 42.9127 47.9034 42.8369 48.1607C42.7435 48.4018 42.6822 48.5907 42.6531 48.7276C42.596 49.0353 42.4611 49.3032 42.2484 49.5315C41.9375 49.8651 41.7119 49.9664 41.5714 49.8355C41.5187 49.7864 41.5233 49.6759 41.5852 49.5039C41.6319 49.3834 41.6704 49.2717 41.7007 49.1687C41.7299 49.0318 41.742 48.8955 41.7373 48.7599C41.7676 48.6569 41.7909 48.5967 41.8073 48.5791C41.8225 48.5276 41.8295 48.4849 41.8283 48.451C41.8434 48.3995 41.8504 48.3568 41.8492 48.3229C41.8305 48.2726 41.8281 48.2048 41.842 48.1194C41.8524 47.9322 41.8347 47.6696 41.7888 47.3316C41.7417 46.9597 41.6983 46.6896 41.6584 46.5211C41.5869 46.4218 41.5055 46.2803 41.4142 46.0967C41.3216 45.8792 41.2139 45.7132 41.091 45.5987C40.9856 45.5005 40.8821 45.4532 40.7803 45.4568C40.7639 45.4744 40.747 45.475 40.7294 45.4586L40.6522 45.4359C40.2228 45.2982 39.7942 45.4236 39.3664 45.8123C38.9374 46.167 38.592 46.4849 38.3302 46.7658C38.3302 46.7658 38.3051 46.7752 38.2548 46.7939C38.2045 46.8127 38.1969 46.8384 38.232 46.8711L37.7447 47.4996L37.643 47.5032L37.2329 48.1545L37.1575 48.1826L36.7756 48.9093C36.7568 48.859 36.7398 48.8596 36.7247 48.911C36.6919 48.9462 36.6756 48.9637 36.6756 48.9637L36.2936 49.6904L36.2428 49.6922L36.1554 50.1028C36.1378 50.0864 36.1121 50.0789 36.0781 50.0801C36.0442 50.0813 36.0273 50.0818 36.0273 50.0818C36.0284 50.1158 36.0384 50.1579 36.0572 50.2082C36.0584 50.2421 36.0514 50.2848 36.0362 50.3362L35.9608 50.3644L35.7489 50.8558C35.7664 50.8722 35.7425 50.9155 35.677 50.9857C35.4459 51.6561 35.2091 52.4031 34.9664 53.2268C34.7225 54.0165 34.7073 54.7897 34.9208 55.5463L34.819 55.5499L34.8088 55.9833C34.81 56.0172 34.8118 56.0681 34.8142 56.1359C34.8329 56.1862 34.8699 56.2698 34.9249 56.3867C35.0163 56.5703 35.1095 56.8047 35.2044 57.0901C35.3157 57.3579 35.4592 57.5736 35.6348 57.7372C35.8104 57.9008 36.0099 58.0211 36.2333 58.0982C36.4393 58.1588 36.5235 58.1389 36.4859 58.0383L36.8649 57.9485L37.2282 58.1395L37.2509 58.0623L37.8334 57.9654L37.8825 57.9127L38.6175 57.8104L39.0964 57.6661L39.2928 57.4554L39.6926 57.2376C39.7429 57.2188 39.7938 57.217 39.8453 57.2322C39.8956 57.2134 39.9189 57.1532 39.9153 57.0514L40.3451 56.9599C40.3439 56.9259 40.3597 56.8914 40.3924 56.8563C40.4251 56.8212 40.4754 56.8024 40.5432 56.8C40.5935 56.7813 40.6356 56.7713 40.6696 56.7701L40.6923 56.6929L41.92 56.1147C41.9352 56.0633 41.9673 56.0112 42.0164 55.9585C42.0982 55.8707 42.1812 55.8169 42.2654 55.7969C42.3484 55.743 42.4315 55.6892 42.5145 55.6353C42.5647 55.6165 42.632 55.5972 42.7162 55.5772C42.8168 55.5397 42.8758 55.5292 42.8934 55.5455C42.9437 55.5268 42.9852 55.4998 43.0179 55.4647C43.067 55.4121 43.1079 55.3682 43.1406 55.333L43.4405 55.1696L43.7931 55.0553L44.0403 54.8428C44.0403 54.8428 44.1409 54.8053 44.342 54.7303C44.5419 54.6214 44.7419 54.5125 44.9418 54.4035C45.1581 54.277 45.2832 54.2132 45.3171 54.212L45.6224 54.2012L45.6206 54.1504L45.8978 54.0642C46.2007 53.9856 46.6177 54.0133 47.1488 54.1474C47.6788 54.2476 48.1456 54.4859 48.5495 54.8622C48.8128 55.1077 49.0353 55.397 49.2169 55.7302C49.3972 56.0295 49.5173 56.3055 49.5772 56.5581C49.6829 57.1487 49.7289 57.7329 49.7153 58.3108C49.7181 58.871 49.7015 59.3641 49.6656 59.7899C49.6364 59.9268 49.6231 60.0291 49.6255 60.097C49.6278 60.1648 49.5963 60.2338 49.5309 60.3041C49.4993 60.3731 49.4848 60.4415 49.4872 60.5094C49.3985 60.8861 49.2678 61.2728 49.095 61.6694C48.9398 62.0824 48.8085 62.4522 48.7011 62.7786C48.638 62.9167 48.5738 63.0208 48.5083 63.091C48.4604 63.1776 48.4125 63.2642 48.3647 63.3508C48.3483 63.3684 48.3243 63.4117 48.2928 63.4807C48.2952 63.5485 48.2876 63.5743 48.2701 63.5579L48.2299 63.865C48.196 63.8662 48.1627 63.8843 48.13 63.9195C48.0645 63.9897 48.026 64.1014 48.0144 64.2547C48.0192 64.3903 47.9801 64.4851 47.8971 64.539L47.8726 64.5653C47.8235 64.618 47.7668 64.6964 47.7025 64.8006C47.6722 64.9035 47.6231 64.9562 47.5553 64.9586L47.3679 65.4237L47.1871 65.3536C47.1708 65.3712 47.1638 65.4139 47.1662 65.4817C47.2025 65.5484 47.2043 65.5992 47.1715 65.6344C47.1715 65.6344 47.1213 65.6531 47.0207 65.6906C46.9201 65.7281 46.8886 65.7972 46.9261 65.8977L46.7351 66.2611C46.6486 66.2132 46.5643 66.2331 46.4825 66.3209C46.4171 66.3911 46.3862 66.4771 46.3897 66.5789L46.088 66.6914L46.1144 66.716L45.8917 66.9021L45.827 67.2355Z" fill="#4B93FF"/>
<path d="M57.6048 53.1366C57.4855 53.2173 57.3788 53.188 57.2847 53.0489C57.2174 52.9495 57.1665 52.8101 57.132 52.6306C57.0624 52.1851 56.9185 51.587 56.7004 50.8363C56.5021 50.0721 56.414 49.3638 56.4362 48.7113C56.3589 48.1261 56.2685 47.5642 56.165 47.0257C56.0679 46.4539 55.9608 45.8889 55.8438 45.3305C55.8438 45.3305 55.8172 45.334 55.764 45.341C55.6974 45.3282 55.6506 45.3019 55.6237 45.2621C55.4705 45.2499 55.2773 45.2212 55.044 45.1762C54.7973 45.1114 54.6797 44.9591 54.6914 44.7193C54.7042 44.6527 54.7107 44.6194 54.7107 44.6194C54.7306 44.6059 54.7405 44.5992 54.7405 44.5992C54.727 44.5793 54.7104 44.5761 54.6905 44.5896C54.6905 44.5896 54.6838 44.5796 54.6703 44.5597L54.6203 44.5501C54.6005 44.5635 54.5806 44.577 54.5607 44.5904C54.5473 44.5706 54.5306 44.5673 54.5107 44.5808C54.4312 44.6346 54.3552 44.715 54.2827 44.822C54.1968 44.9091 54.1041 44.9863 54.0047 45.0536C53.8855 45.1343 53.7601 45.2915 53.6285 45.5254C53.4836 45.7394 53.3517 45.93 53.2331 46.0973C53.167 46.1709 53.124 46.2145 53.1042 46.228C53.0907 46.2081 53.0577 46.2449 53.0051 46.3385C52.9986 46.3718 52.9785 46.342 52.9445 46.249C52.9171 46.1227 52.8899 46.0397 52.863 46C52.8495 45.9801 52.8329 45.9769 52.813 45.9903C52.7732 46.0172 52.7341 46.1307 52.6955 46.3306C52.6435 46.5107 52.6043 46.6241 52.578 46.6709C52.5716 46.7042 52.5818 46.7408 52.6087 46.7805C52.6555 46.8068 52.6923 46.8399 52.7192 46.8796C52.7596 46.9392 52.757 47.0424 52.7114 47.1892C52.6523 47.3161 52.6164 47.4128 52.6035 47.4795C52.5644 47.5929 52.4919 47.6999 52.3861 47.8005C52.2867 47.8678 52.2142 47.9748 52.1686 48.1215C52.1031 48.2817 52.0838 48.3817 52.1107 48.4215C52.1575 48.4478 52.145 48.5577 52.0731 48.7512C51.9883 49.0114 51.8811 49.3882 51.7513 49.8817C51.6414 50.3617 51.581 50.7649 51.5699 51.0911C51.5016 51.8038 51.5101 52.566 51.5956 53.3775C51.7009 54.1755 51.8679 54.7435 52.0965 55.0814C52.2714 55.3398 52.4681 55.3951 52.6868 55.2471C52.7265 55.2202 52.7663 55.1933 52.806 55.1664C52.8323 55.1197 52.8686 55.0662 52.9147 55.0059L53.3874 54.0342L53.5461 53.8833L53.5259 53.8535L53.7057 53.8622C53.7121 53.8289 53.682 53.8058 53.6154 53.793C53.5551 53.7468 53.535 53.717 53.5548 53.7035C53.5747 53.6901 53.5914 53.6933 53.6048 53.7132C53.6247 53.6997 53.6446 53.6863 53.6645 53.6728L53.6636 53.543C53.6636 53.543 53.7001 53.5328 53.7732 53.5123C53.8527 53.4585 53.8989 53.3983 53.9117 53.3316C53.9579 53.2714 53.9477 53.2349 53.881 53.222C53.8343 53.1957 53.7843 53.1861 53.7311 53.1931L53.8187 52.873C53.8117 52.8198 53.8643 52.7262 53.9766 52.5923C54.1665 52.145 54.27 51.6983 54.2869 51.2522C54.3102 50.7728 54.3835 50.303 54.5069 49.8428L54.5367 49.8227L54.6524 49.2228L54.562 49.1535L54.647 48.444L54.7067 48.4036C54.6997 48.3504 54.7058 48.2739 54.7251 48.1739C54.7642 48.0604 54.7803 47.9771 54.7733 47.9239C54.7996 47.8771 54.8218 47.7172 54.8399 47.4442C54.8644 47.1378 54.9059 46.8779 54.9643 46.6645C55.0427 46.4377 55.0918 46.3175 55.1116 46.3041C55.1315 46.2906 55.1482 46.2938 55.1616 46.3137C55.202 46.3733 55.2327 46.483 55.2537 46.6426C55.2947 46.7887 55.3087 46.8951 55.2959 46.9618C55.3047 47.2746 55.2939 47.6441 55.2635 48.0703C55.2197 48.4767 55.1981 48.7231 55.1987 48.8097C55.135 49.2295 55.0822 49.7723 55.0401 50.4383C54.9847 51.0843 54.8994 51.7506 54.7843 52.437C54.6692 53.1234 54.5137 53.7502 54.3179 54.3173C54.1285 54.8512 53.8649 55.2324 53.5269 55.461C53.2089 55.6762 52.8037 55.8055 52.3115 55.8488C51.8192 55.8921 51.3847 55.6355 51.0081 55.0789C50.8871 54.9 50.7725 54.6878 50.6643 54.4422C50.5625 54.1634 50.4839 53.8544 50.4283 53.5153C50.4283 53.5153 50.4347 53.4819 50.4476 53.4153C50.447 53.3288 50.4633 53.2887 50.4967 53.2951C50.4961 53.2086 50.4657 53.1423 50.4054 53.0961C50.3516 53.0166 50.318 52.9669 50.3046 52.947L50.3239 52.847C50.2157 52.6015 50.2302 52.3018 50.3676 51.9481C50.505 51.5943 50.55 51.361 50.5026 51.2482C50.509 51.2149 50.4988 51.1783 50.4719 51.1386L50.3289 50.6703L50.2482 50.551L50.3675 50.4703L50.3762 50.2905L50.3657 50.2107C50.3125 50.2177 50.3022 50.1812 50.335 50.1011C50.3741 49.9877 50.3937 49.931 50.3937 49.931C50.3867 49.8778 50.3864 49.8345 50.3928 49.8012C50.4191 49.7544 50.4355 49.7143 50.4419 49.681L50.6506 49.5398C50.65 49.4533 50.61 49.4369 50.5305 49.4907C50.451 49.5445 50.4112 49.5714 50.4112 49.5714C50.3978 49.5515 50.391 49.5416 50.391 49.5416C50.3975 49.5082 50.394 49.4816 50.3805 49.4618L50.5269 48.9715C50.5725 48.8247 50.6248 48.6879 50.6839 48.561C50.7429 48.4342 50.7853 48.3041 50.811 48.1708C50.8706 48.1304 50.9007 48.1535 50.9013 48.24C50.9481 48.2663 50.968 48.2529 50.961 48.1997C50.9738 48.133 50.9802 48.0997 50.9802 48.0997L51.1092 47.969L51.089 47.9392C51.0621 47.8995 51.0317 47.8331 50.9977 47.7401C50.9638 47.6472 50.9401 47.5908 50.9267 47.5709C51.1289 46.9704 51.3779 46.3962 51.6737 45.8484C51.9561 45.2806 52.3159 44.8488 52.7532 44.5529C53.27 44.2032 53.8716 44.0859 54.558 44.2011L54.7676 44.1896C54.7875 44.1762 54.7907 44.1595 54.7773 44.1396C54.6287 43.8345 54.7161 43.4711 55.0394 43.0495C55.3825 42.6145 55.7231 42.2826 56.061 42.054C56.4188 41.8119 56.6313 41.7405 56.6986 41.8399C56.7255 41.8797 56.7129 41.9896 56.6609 42.1697C56.6282 42.2498 56.5893 42.4065 56.5443 42.6398C56.4993 42.8731 56.4745 43.1362 56.4698 43.4291C56.4903 43.5022 56.5008 43.582 56.5014 43.6685C56.502 43.755 56.5026 43.8416 56.5032 43.9281C56.5102 43.9813 56.514 44.0512 56.5146 44.1377C56.5216 44.1909 56.5187 44.2508 56.5059 44.3175C56.558 45.1226 56.6192 45.7911 56.6894 46.3232C56.7596 46.8552 56.864 47.5235 57.0027 48.328C57.0436 48.4742 57.0708 48.5572 57.0843 48.5771C57.1919 48.7361 57.3351 48.7551 57.514 48.634C57.6333 48.5533 57.7323 48.4428 57.8113 48.3025L58.0287 47.9815C58.2099 47.2214 58.458 46.5174 58.7731 45.8696C58.793 45.8561 58.8029 45.8494 58.8029 45.8494C58.8093 45.8161 58.8225 45.7927 58.8424 45.7792C58.902 45.7389 58.9687 45.7517 59.0423 45.8178C59.1026 45.864 59.1163 45.9271 59.0836 46.0072C58.7223 46.7153 58.4613 47.4859 58.3006 48.3191C58.3077 48.3723 58.3147 48.4255 58.3217 48.4787C58.3287 48.5319 58.3258 48.5918 58.313 48.6585C58.2802 48.7386 58.2677 48.8485 58.2753 48.9882C58.2829 49.128 58.2934 49.2078 58.3069 49.2277C58.3273 49.3007 58.311 49.3408 58.2578 49.3478C58.2244 49.3414 58.185 49.4116 58.1394 49.5583C58.133 49.5916 58.14 49.6448 58.1605 49.7179C58.2008 49.7776 58.2245 49.834 58.2315 49.8872C58.2321 49.9737 58.226 50.0503 58.2131 50.117C58.1868 50.1637 58.1804 50.1971 58.1938 50.2169C58.2278 50.3099 58.2216 50.3865 58.1754 50.4467C58.1357 50.4736 58.1094 50.5204 58.0965 50.587C58.0766 50.6005 58.0734 50.6172 58.0869 50.637C58.2079 50.8159 58.2418 50.9089 58.1886 50.9159C58.1354 50.9229 58.1091 50.9697 58.1097 51.0562C58.1238 51.1627 58.101 51.236 58.0413 51.2764C57.949 51.3968 57.9195 51.4603 57.9528 51.4667C58.006 51.4597 58.0493 51.4594 58.0826 51.4658C58.1223 51.4389 58.1127 51.4889 58.0537 51.6158C58.0274 51.6626 58.0279 51.7491 58.0554 51.8754C58.0695 51.9818 58.0701 52.0683 58.0572 52.135C58.0245 52.2151 57.985 52.2852 57.9388 52.3455C57.8927 52.4057 57.8699 52.4791 57.8705 52.5656C57.8126 52.8655 57.7241 53.0559 57.6048 53.1366Z" fill="#4B93FF"/>
<path d="M61.6338 50.463C61.5001 50.5164 61.4021 50.4651 61.3398 50.3091C61.2953 50.1977 61.2753 50.0506 61.2799 49.8679C61.3068 49.4178 61.305 48.7983 61.2742 48.0094C61.2434 47.2206 61.3085 46.5098 61.4692 45.877L61.6115 42.4477C61.6115 42.4477 61.5848 42.4454 61.5313 42.4409C61.4689 42.4142 61.4289 42.3785 61.411 42.3339C61.2417 42.2982 61.0479 42.2334 60.8296 42.1397C60.6246 42.0148 60.5423 41.841 60.5825 41.6182C60.6093 41.5558 60.6338 41.5201 60.6561 41.5112C60.6784 41.5023 60.6895 41.4979 60.6895 41.4979L60.6628 41.431C60.6272 41.3419 60.6384 41.2728 60.6964 41.2238C60.7766 41.1659 60.819 41.1102 60.8235 41.0568C60.7434 40.7269 60.9063 40.3905 61.312 40.0476C61.7401 39.6957 62.1436 39.4442 62.5225 39.2928C62.9014 39.1415 63.1131 39.1216 63.1576 39.233C63.1843 39.2999 63.1486 39.4046 63.0504 39.5472C63.0237 39.6095 62.9523 39.7544 62.8363 39.9816C62.7426 40.1999 62.6733 40.4472 62.6286 40.7235L62.5548 41.2182L62.4409 41.6125C62.3425 42.4013 62.2708 43.0631 62.2259 43.5978C62.1811 44.1326 62.1406 44.8078 62.1045 45.6233C62.091 45.7838 62.1021 45.9086 62.1377 45.9977C62.1822 46.1092 62.249 46.1471 62.3382 46.1115C62.3827 46.0937 62.4229 46.0647 62.4585 46.0246C62.5076 45.9534 62.5611 45.8932 62.6191 45.8442C62.7529 45.6616 62.8577 45.5034 62.9336 45.3698C63.0228 45.2049 63.1231 45.0356 63.2347 44.8619C63.2748 44.7683 63.3305 44.7461 63.4018 44.7951C63.4642 44.8219 63.4909 44.8888 63.4819 44.9957C63.464 45.2096 63.4416 45.3478 63.4149 45.4101C63.4015 45.4413 63.3769 45.477 63.3413 45.5171C63.3056 45.5572 63.2453 45.6975 63.1605 45.9381L63.1336 46.259C63.1068 46.3214 63.0867 46.4328 63.0733 46.5932C63.0732 46.7225 63.0776 46.7982 63.0865 46.8205C63.1043 46.8651 63.0909 46.8963 63.0463 46.9141C62.9929 46.9096 62.9393 46.9697 62.8858 47.0945C62.8724 47.1257 62.8791 47.1747 62.9058 47.2416C62.9548 47.2995 62.9659 47.3597 62.9391 47.4221C62.9435 47.4978 62.9323 47.5669 62.9056 47.6293C62.8699 47.6694 62.8565 47.7006 62.8654 47.7229C62.8787 47.8209 62.8564 47.8944 62.7984 47.9434C62.7538 47.9612 62.7182 48.0013 62.6914 48.0637C62.6691 48.0726 62.6669 48.0993 62.6847 48.1439C62.7559 48.3222 62.7647 48.4091 62.7113 48.4047C62.6578 48.4002 62.6221 48.4403 62.6042 48.5249C62.5953 48.6319 62.5573 48.6987 62.4905 48.7254C62.3745 48.8234 62.3322 48.8791 62.3634 48.8925C62.3946 48.9059 62.4369 48.9148 62.4904 48.9193C62.5349 48.9015 62.5149 48.9483 62.4301 49.0596C62.3722 49.1086 62.3431 49.1977 62.3431 49.327C62.3341 49.4339 62.3162 49.5186 62.2894 49.581C62.2627 49.6434 62.2203 49.699 62.1623 49.748C62.1044 49.797 62.0665 49.8639 62.0486 49.9485C61.9281 50.2292 61.7898 50.4007 61.6338 50.463ZM67.2911 47.351C67.1574 47.4044 67.0281 47.4043 66.9034 47.3507L66.8699 47.3641C66.6693 47.4442 66.6003 47.3684 66.6628 47.1367C66.6317 46.9941 66.6362 46.876 66.6764 46.7824C66.7076 46.6665 66.7501 46.5462 66.8036 46.4215C66.8259 46.4126 66.837 46.4081 66.837 46.4081C66.8281 46.3858 66.8237 46.3747 66.8237 46.3747C66.8282 46.192 66.8684 46.0338 66.9443 45.9001L66.9979 45.6461C67.0514 45.5214 67.0872 45.352 67.1051 45.1381C67.1498 44.9911 67.1744 44.8908 67.1788 44.8373C67.1744 44.7616 67.1745 44.6323 67.1791 44.4496C67.1613 44.405 67.168 44.3248 67.1992 44.2089C67.2305 44.0931 67.2528 44.0196 67.2662 43.9884L67.2665 43.4068C67.2443 43.2864 67.2422 43.1839 67.26 43.0993C67.2779 43.0146 67.2757 42.9121 67.2535 42.7917L67.2538 42.2101C67.2361 42.0363 67.2473 41.9026 67.2875 41.8091L67.3209 41.7957C67.2719 41.7377 67.2586 41.6397 67.281 41.5015C67.2632 41.3277 67.2433 41.1806 67.2211 41.0603C67.2122 40.9088 67.2078 40.833 67.2078 40.833L67.0678 40.1912C66.8853 39.7989 66.638 39.665 66.326 39.7896C66.2145 39.8342 66.083 39.9254 65.9314 40.0635C65.597 40.3263 65.2893 40.7205 65.0082 41.2463C64.9948 41.2774 64.9747 41.3242 64.948 41.3866C64.9435 41.4401 64.9278 41.498 64.9011 41.5604C64.8877 41.5916 64.8698 41.6116 64.8476 41.6205C64.8387 41.5982 64.8208 41.6183 64.794 41.6807C64.7807 41.7119 64.7829 41.7497 64.8007 41.7943C64.8096 41.8166 64.8073 41.8433 64.7939 41.8745C64.7805 41.9057 64.756 41.9414 64.7203 41.9814C64.698 41.9904 64.6735 42.026 64.6467 42.0884C64.6245 42.0973 64.6111 42.1285 64.6066 42.1819C64.6155 42.2042 64.6132 42.231 64.5998 42.2622C64.5463 42.3869 64.4794 42.5429 64.399 42.73C64.3098 42.8948 64.2094 43.0641 64.0979 43.2379L64.0043 43.3916C63.9909 43.4228 63.9752 43.4807 63.9574 43.5654C63.9529 43.6189 63.9372 43.6768 63.9105 43.7392C63.8569 43.8639 63.819 43.9954 63.7966 44.1335C63.7742 44.2717 63.7118 44.3741 63.6093 44.4409L63.5424 44.4676C63.4309 44.5121 63.3909 44.4118 63.4222 44.1667C63.4267 44.1133 63.4513 44.013 63.4959 43.8659C63.5629 43.71 63.603 43.6164 63.6164 43.5852L63.6967 43.3981C63.7235 43.3357 63.7325 43.2934 63.7236 43.2711C63.7146 43.2488 63.7169 43.2221 63.7303 43.1909L63.9444 42.7565L64.0114 42.5359L64.1787 42.2753L64.5937 41.373C64.6204 41.3107 64.6561 41.206 64.7008 41.0589C64.7677 40.903 64.819 40.8049 64.8547 40.7648C64.9216 40.6089 65.0086 40.4708 65.1157 40.3505C65.2138 40.208 65.3075 40.0543 65.3967 39.8894C65.4725 39.7558 65.564 39.6288 65.671 39.5085C65.7245 39.3838 65.7691 39.3013 65.8048 39.2612C65.9609 39.0697 66.0457 38.9583 66.059 38.9271C66.0724 38.8959 66.1371 38.8314 66.253 38.7334C66.4269 38.5864 66.6476 38.4595 66.915 38.3527C67.0933 38.2815 67.2092 38.2481 67.2627 38.2526C67.392 38.2527 67.5212 38.2528 67.6505 38.2528C67.7797 38.2529 67.8799 38.3421 67.9511 38.5204C67.9956 38.6318 68.0335 38.6943 68.0647 38.7076C68.087 38.6987 68.1137 38.7656 68.1448 38.9082C68.1804 38.9974 68.2271 39.1467 68.2849 39.3562C68.365 39.5568 68.405 39.7217 68.405 39.851C68.4272 39.9713 68.4338 40.1496 68.4247 40.3858C68.4291 40.5908 68.4357 40.7691 68.4445 40.9206L68.451 41.2281L68.3637 41.8832C68.3503 41.9144 68.2946 42.0013 68.1965 42.1438C68.0894 42.2641 68.0225 42.3554 67.9958 42.4178C67.9824 42.449 68.0336 42.4802 68.1495 42.5115C68.2653 42.5427 68.2987 42.6586 68.2495 42.8591C68.2406 42.9661 68.2071 43.0441 68.1491 43.0931C68.0823 43.1198 68.0377 43.2022 68.0153 43.3403C67.8992 43.8261 67.7942 44.1781 67.7005 44.3964L67.533 45.0448L67.4728 45.1851C67.5619 45.1495 67.6622 45.1741 67.7736 45.2588C67.8226 45.3168 67.8894 45.3547 67.9741 45.3726C68.0587 45.3904 68.1278 45.4662 68.1812 45.6C68.2435 45.756 68.2433 46.0145 68.1807 46.3754C68.1182 46.7364 67.9643 46.9658 67.7191 47.0637C67.6299 47.0993 67.5608 47.1528 67.5118 47.2241C67.4538 47.2731 67.3802 47.3154 67.2911 47.351ZM76.6049 44.5618C76.4266 44.633 76.2996 44.6708 76.2238 44.6752C75.9831 44.7197 75.7558 44.7329 75.5419 44.715C75.3503 44.6881 75.1498 44.5743 74.9404 44.3737C74.8513 44.28 74.7378 44.1574 74.5997 44.0058C74.4616 43.8542 74.3391 43.7093 74.2323 43.5711C74.1655 43.4685 74.1009 43.3393 74.0386 43.1832C74.003 43.0941 73.9652 43.0317 73.9251 42.996C73.8984 42.9291 73.8672 42.8511 73.8316 42.762C73.796 42.6728 73.7448 42.577 73.678 42.4744C73.6112 42.3719 73.5712 42.2716 73.5578 42.1735L73.3042 41.5383C73.2597 41.4269 73.2196 41.3266 73.184 41.2374C73.1395 41.126 73.1195 41.0435 73.124 40.99C73.0884 40.7716 73.0707 40.6624 73.0707 40.6624C73.0618 40.6402 73.0284 40.5243 72.9706 40.3148C72.8861 40.0384 72.7748 39.7598 72.6368 39.479C72.5211 39.1892 72.4388 38.9507 72.3899 38.7635C72.1897 38.0682 71.9336 37.7828 71.6216 37.9074C71.4878 37.9608 71.3318 38.0877 71.1534 38.2882C71.1489 38.3417 71.1177 38.3929 71.0597 38.4419C70.9928 38.4686 70.9282 38.5332 70.8657 38.6357L70.7721 38.7894C70.781 38.8117 70.752 38.8361 70.6851 38.8629C70.6316 38.8584 70.6249 38.874 70.665 38.9096C70.7362 39.0879 70.6983 39.1548 70.5513 39.1101L70.3238 39.5111L70.2769 39.6849L70.2568 39.7317C70.2032 39.8564 70.143 39.9322 70.0762 39.9589L69.9825 40.1126C69.9914 40.1349 69.9869 40.1883 69.969 40.273C69.9646 40.3265 69.9244 40.3554 69.8487 40.3598L69.7483 40.5938C69.7125 40.7631 69.6656 40.8723 69.6077 40.9212C69.572 40.9613 69.5252 41.0059 69.4672 41.0549L69.2998 41.5094L69.1795 41.5962C69.2151 41.6853 69.1682 41.8591 69.0388 42.1175C68.9317 42.3671 68.8692 42.5342 68.8513 42.6188C68.8112 42.7124 68.7577 42.7725 68.6908 42.7992C68.6462 42.817 68.615 42.8036 68.5972 42.7591C68.5616 42.6699 68.5706 42.563 68.6241 42.4382C68.6777 42.3134 68.7447 42.0929 68.8251 41.7765C68.9277 41.4512 68.9902 41.2841 69.0125 41.2752C69.0795 41.1193 69.113 40.9767 69.113 40.8474C69.1131 40.7182 69.1511 40.5867 69.2269 40.4531C69.2447 40.4977 69.2759 40.511 69.3205 40.4932C69.365 40.4754 69.3874 40.4019 69.3874 40.2727C69.4009 40.1122 69.4232 40.0387 69.4544 40.0521L69.8559 39.3103C69.8247 39.2969 69.8627 39.2301 69.9697 39.1098C70.041 39.0296 70.0879 38.9851 70.1101 38.9762C70.1324 38.9673 70.1614 38.8782 70.1972 38.7088L70.3645 38.4482C70.369 38.3947 70.3912 38.3858 70.4313 38.4215C70.4714 38.4572 70.5138 38.4661 70.5583 38.4483L70.5317 38.1876C70.5407 38.0806 70.592 37.9826 70.6857 37.8935C70.7793 37.8044 70.8685 37.7042 70.9532 37.5928C71.0202 37.4369 71.0915 37.2921 71.1674 37.1584C71.2432 37.0248 71.319 36.9557 71.3948 36.9513L71.5285 36.8979C71.7738 36.6708 72.0078 36.5127 72.2307 36.4237C72.5873 36.2813 72.9193 36.3037 73.2267 36.4911C73.3604 36.5669 73.4651 36.6672 73.5408 36.7921C73.572 36.8055 73.5853 36.8389 73.5808 36.8924C73.5897 36.9147 73.6142 36.9436 73.6543 36.9793C73.6944 37.015 73.7612 37.0529 73.8548 37.0931C73.9395 37.111 73.9952 37.1533 74.0219 37.2202L74.0486 37.2871C74.0753 37.3539 74.0618 37.4497 74.0083 37.5745C74.1553 37.6191 74.2222 37.6571 74.2088 37.6882C74.1865 37.6971 74.1776 37.7395 74.182 37.8152L74.3355 38.2966C74.3755 38.4616 74.3799 38.602 74.3486 38.7178C74.3307 38.8025 74.3351 38.9429 74.3617 39.139C74.5043 39.2371 74.5354 39.3151 74.4552 39.373C74.4641 39.3953 74.4463 39.4153 74.4017 39.4331L74.4217 39.5802C74.5018 39.6516 74.5419 39.6873 74.5419 39.6873L74.5217 39.9279C74.5217 39.9279 74.5552 39.9145 74.622 39.8878C74.5953 39.9502 74.5863 40.0572 74.5951 40.2087C74.6173 40.3291 74.6306 40.4271 74.6351 40.5029C74.6573 40.6232 74.635 40.6967 74.5681 40.7234C74.5012 40.7501 74.5012 40.8148 74.568 40.9173C74.5992 40.9307 74.6415 41.0043 74.6949 41.138C74.7394 41.2494 74.7393 41.3141 74.6948 41.3319L74.7881 41.7597C74.797 41.782 74.8059 41.8043 74.8148 41.8266C74.846 41.84 74.8661 41.8578 74.875 41.8801C74.9195 41.9916 74.9417 42.1119 74.9416 42.2412C74.9549 42.3392 74.9615 42.4529 74.9615 42.5821C74.9837 42.7024 75.0104 42.8339 75.0415 42.9766C75.086 43.088 75.1305 43.1994 75.175 43.3109C75.2106 43.4 75.2506 43.5003 75.2952 43.6118C75.353 43.692 75.4109 43.7723 75.4688 43.8525C75.5 43.8659 75.5602 43.9194 75.6492 44.0131C75.7606 44.0978 75.8207 44.1513 75.8296 44.1736C75.892 44.2004 75.9344 44.2093 75.9566 44.2004C76.0101 44.2049 76.0814 44.1894 76.1706 44.1538C76.2731 44.087 76.3556 44.067 76.418 44.0937C76.6275 44.0359 76.8437 43.8333 77.0668 43.4858C77.3032 43.1071 77.4973 42.7194 77.649 42.3229C77.6892 42.2293 77.7427 42.1692 77.8095 42.1425C77.8764 42.1158 77.9343 42.1314 77.9833 42.1894C78.0323 42.2473 78.0456 42.3454 78.0233 42.4835C77.8491 43.1475 77.6304 43.6354 77.3673 43.9472C77.1265 44.2501 76.8724 44.455 76.6049 44.5618Z" fill="#4B93FF"/>
<path d="M72.6197 54.6243C72.2645 54.6827 71.9508 54.6978 71.6786 54.6696C71.505 54.6495 71.3295 54.6175 71.1521 54.5737C70.9746 54.5299 70.7834 54.4763 70.5783 54.4127L70.5015 54.3888C70.3989 54.3571 70.2807 54.3035 70.1467 54.2283C70.0166 54.1767 69.8885 54.137 69.7623 54.1091C69.6636 54.101 69.5217 54.0514 69.3365 53.9602C69.2025 53.8849 69.1159 53.8019 69.0766 53.7111C69.0137 53.6241 69.0158 53.563 69.0829 53.5276C69.1066 53.5237 69.1441 53.5297 69.1953 53.5456C69.2505 53.5852 69.3037 53.6129 69.3549 53.6288C69.4062 53.6447 69.4712 53.6705 69.5501 53.7062C69.6052 53.7457 69.6584 53.7735 69.7097 53.7894C69.8359 53.8173 69.9483 53.8353 70.0469 53.8434C70.1258 53.8791 70.2164 53.9128 70.319 53.9446C70.5477 54.0043 70.7113 54.0381 70.81 54.0463C70.9086 54.0544 71.0546 54.0547 71.2479 54.0472L71.7156 54.0068C72.5522 53.9179 73.2451 53.6945 73.7944 53.3366C74.3436 52.9787 74.8199 52.5477 75.2235 52.0436C75.6072 51.567 75.9535 51.0844 76.2623 50.5958C76.3022 50.3947 76.3559 50.2034 76.4234 50.0221C76.4672 49.8446 76.5306 49.7126 76.6136 49.626C76.6334 49.5984 76.659 49.6063 76.6905 49.6498C76.7259 49.717 76.7535 49.7367 76.7732 49.7092C76.8089 49.6303 76.825 49.5061 76.8214 49.3364C76.8217 49.1904 76.8397 49.078 76.8754 48.9992C76.915 48.944 76.9643 48.9481 77.0233 49.0113C77.0587 49.0785 77.0863 49.0983 77.1061 49.0707C77.1456 49.0156 77.1537 48.9169 77.1304 48.7748C77.1109 48.6564 77.1091 48.5716 77.125 48.5203C77.331 48.146 77.5053 47.8011 77.6481 47.4858C77.7908 47.1704 77.9494 46.8038 78.1239 46.386C78.2112 46.177 78.3301 45.9386 78.4806 45.6706C78.6074 45.4065 78.7342 45.1425 78.8611 44.8784C78.9843 44.4446 79.1429 44.078 79.3369 43.7786L79.3252 43.7076C79.3097 43.6128 79.3178 43.5142 79.3496 43.4117C79.3813 43.3092 79.4032 43.2204 79.4152 43.1455C79.4314 42.9483 79.4593 42.8221 79.4989 42.7669C79.5385 42.7118 79.5526 42.5757 79.5412 42.3586L79.5767 42.3528C79.4116 42.0881 79.347 41.8433 79.383 41.6185C79.4148 41.516 79.4802 41.3958 79.5791 41.2579C79.6978 41.0924 79.7849 40.9565 79.8404 40.8501C79.8683 40.7239 79.8685 40.6509 79.8409 40.6311L79.8234 40.5245C79.7961 40.3588 79.8083 40.2108 79.8598 40.0807C79.9351 39.9468 79.9946 39.791 80.0384 39.6136C80.0465 39.515 80.0861 39.4598 80.1571 39.4481L80.2637 39.4306C80.3111 39.4228 80.3289 39.3834 80.3172 39.3123C80.3094 39.265 80.2879 39.2077 80.2525 39.1406C80.2369 39.0458 80.2095 38.9531 80.1702 38.8622C80.1667 38.6926 80.2202 38.5743 80.3308 38.5075L80.4018 38.4958C80.3986 38.1801 80.4109 37.9592 80.4388 37.833C80.4628 37.6831 80.5025 37.555 80.558 37.4486L80.8076 36.9697L80.8499 36.5615C80.8817 36.4589 80.9174 36.3801 80.957 36.325C80.9926 36.2461 81.0303 36.1791 81.0698 36.124L81.064 36.0884C81.076 36.0135 81.1018 35.9485 81.1414 35.8933C81.177 35.8145 81.2028 35.7494 81.2187 35.6982L81.3141 35.3906C81.3063 35.3433 81.3361 35.2289 81.4036 35.0475C81.4711 34.8662 81.5147 34.7617 81.5345 34.7342C81.6337 34.4503 81.7111 34.2552 81.7666 34.1487C81.8457 34.0384 81.9606 33.8493 82.1111 33.5813C82.1429 33.4788 82.1944 33.3487 82.2658 33.191C82.3569 33.0058 82.4382 32.8343 82.5096 32.6767L81.9587 32.8767C81.9153 32.9082 81.8955 32.9358 81.8994 32.9594C81.8994 32.9594 81.8757 32.9633 81.8283 32.9711C81.7848 33.0026 81.7177 33.038 81.6269 33.0772C81.536 33.1165 81.4669 33.14 81.4196 33.1478C81.3485 33.1595 81.2538 33.175 81.1354 33.1945C81.0131 33.1903 80.8927 33.1979 80.7743 33.2174C80.7506 33.2213 80.723 33.2015 80.6916 33.158C80.6601 33.1146 80.6226 33.1086 80.5792 33.14C80.5555 33.1439 80.512 33.1754 80.4488 33.2345C80.3855 33.2935 80.3321 33.3388 80.2887 33.3702C80.265 33.3741 80.2413 33.378 80.2176 33.3819C80.19 33.3621 80.1664 33.366 80.1466 33.3936C80.1229 33.3975 80.0893 33.4152 80.0458 33.4466C80.0261 33.4742 79.9944 33.5037 79.951 33.5352C79.8364 33.5784 79.712 33.6353 79.5777 33.706C79.4395 33.7531 79.2934 33.8258 79.1393 33.9241L79.0683 33.9358C78.9972 33.9474 78.9558 33.9178 78.9442 33.8467C78.9208 33.7046 78.9782 33.61 79.1164 33.563C79.2744 33.4884 79.464 33.3842 79.6853 33.2506C79.9065 33.1169 80.1316 33.0069 80.3607 32.9206C80.4317 32.9089 80.489 32.8873 80.5324 32.8559C80.5996 32.8205 80.6568 32.7989 80.7042 32.7911C80.7753 32.7794 80.8325 32.7579 80.876 32.7264C80.9431 32.691 81.0122 32.6675 81.0833 32.6558C81.1229 32.6007 81.1545 32.5712 81.1782 32.5673C81.3676 32.5361 81.5493 32.4576 81.7232 32.3317C81.8932 32.1821 82.0868 32.0287 82.3042 31.8713C82.4385 31.8006 82.5531 31.6845 82.6482 31.5229C82.7669 31.3574 82.848 31.259 82.8915 31.2275C82.9311 31.1724 82.9588 31.1191 82.9747 31.0679C83.0143 31.0127 83.0775 30.9537 83.1645 30.8907C83.2358 30.7331 83.3289 30.5597 83.4437 30.3705C83.5823 30.1775 83.7798 30.0477 84.0364 29.9812C84.1312 29.9656 84.3008 29.9621 84.5454 29.9705C84.8098 29.9513 84.9539 29.9398 84.9776 29.9359C85.0762 29.944 85.1372 30.0191 85.1605 30.1612C85.1995 30.398 85.1438 30.5774 84.9936 30.6994C84.9502 30.7309 84.9382 30.8058 84.9577 30.9242C84.9969 31.0151 84.9968 31.0881 84.9572 31.1432L84.4711 31.515C84.3407 31.6094 84.2458 31.698 84.1864 31.7807C84.1468 31.8359 84.048 31.9008 83.8901 31.9754C83.8427 31.9832 83.7736 32.0067 83.6828 32.046C83.6156 32.0813 83.5485 32.1167 83.4813 32.152C83.4336 32.3058 83.3702 32.4379 83.2911 32.5482C83.2317 32.6309 83.1603 32.7886 83.077 33.0212C82.9025 33.439 82.8211 33.6835 82.8327 33.7545C82.8405 33.8019 82.8186 33.8906 82.7671 34.0207C82.7473 34.0483 82.7333 34.1114 82.7252 34.21C82.7132 34.2849 82.6993 34.348 82.6834 34.3993L82.3087 35.2271C82.3126 35.2507 82.275 35.3177 82.1958 35.428C82.1128 35.5147 82.0633 35.5836 82.0474 35.6349C82.0315 35.6861 82.0255 35.7236 82.0294 35.7473C82.057 35.7671 82.0727 35.7888 82.0766 35.8125C82.0883 35.8835 82.0606 35.9367 81.9934 35.9721C81.95 36.0036 81.9302 36.0311 81.9341 36.0548C81.9143 36.0824 81.8926 36.0981 81.8689 36.102C81.865 36.0783 81.8432 36.0941 81.8037 36.1492C81.7839 36.1768 81.7719 36.2518 81.7677 36.3741C81.7832 36.4688 81.7811 36.5299 81.7614 36.5575C81.6582 36.8177 81.6143 37.0681 81.6295 37.3089C81.6409 37.5259 81.5851 37.7783 81.4622 38.066C81.3707 38.3973 81.3605 38.5571 81.4315 38.5454C81.5026 38.5337 81.5381 38.5278 81.5381 38.5278C81.8151 38.1418 82.2089 37.5784 82.7195 36.8378C83.2499 36.0695 83.798 35.3348 84.3637 34.6338C84.4231 34.551 84.4785 34.4446 84.5301 34.3145C84.5817 34.1844 84.6391 34.0899 84.7023 34.0308C84.8409 33.8378 84.9971 33.6783 85.1709 33.5524C85.3409 33.4029 85.4971 33.2434 85.6395 33.0741C85.7424 32.9599 85.8392 32.8831 85.93 32.8439C86.0445 32.8007 86.1433 32.7358 86.2264 32.6492C86.2698 32.6178 86.2778 32.5921 86.2502 32.5723C86.2187 32.5289 86.2247 32.4914 86.2682 32.4599C86.5053 32.275 86.6338 32.1687 86.6536 32.1412C86.6734 32.1136 86.7623 32.0625 86.9202 31.9879C87.1652 31.8503 87.4534 31.7543 87.785 31.6997C87.9981 31.6647 88.1303 31.6551 88.1815 31.671C88.3116 31.7226 88.4516 31.7604 88.6015 31.7844C88.7514 31.8084 88.8458 31.9388 88.8847 32.1756C88.9042 32.294 88.9277 32.3631 88.9553 32.3829C88.979 32.379 89.0045 32.4599 89.0317 32.6257C89.0512 32.7441 89.0587 32.9375 89.0541 33.2058C89.0733 33.4702 89.0827 33.6753 89.0824 33.8213L89.0863 34.7328C89.0743 34.8077 89.086 34.8788 89.1214 34.9459C89.1568 35.0131 89.1684 35.0841 89.1564 35.159C89.1366 35.1866 89.107 35.228 89.0674 35.2831C89.0278 35.3383 89.0001 35.3915 88.9842 35.4428C88.8223 35.4937 88.7175 35.5961 88.6698 35.7498C88.642 35.876 88.709 35.9137 88.8708 35.8627C88.851 35.8903 88.8095 35.9336 88.7463 35.9927C88.7067 36.0478 88.679 36.101 88.6631 36.1523C88.6433 36.1798 88.659 36.2016 88.7103 36.2175C88.7576 36.2097 88.7476 36.2965 88.6801 36.4778C88.6285 36.6079 88.5828 36.7735 88.5429 36.9747C88.503 37.1758 88.4573 37.3414 88.4057 37.4715C88.3502 37.5779 88.2889 37.6488 88.2218 37.6842C88.1783 37.7156 88.1288 37.7846 88.0734 37.891C88.0575 37.9423 88.0534 37.9916 88.0612 38.0389C88.069 38.0863 88.0531 38.1375 88.0135 38.1927C87.9976 38.244 87.9561 38.2873 87.889 38.3226C87.8455 38.3541 87.804 38.3974 87.7644 38.4526C87.1546 39.4771 86.3653 40.446 85.3967 41.3593C84.4517 42.2687 83.3909 42.9174 82.2143 43.3054C82.1432 43.3171 82.0722 43.3288 82.0011 43.3405C81.9577 43.372 81.9123 43.3916 81.8649 43.3994C81.486 43.4617 81.1744 43.4156 80.9301 43.2612C80.7095 43.1029 80.4988 42.9308 80.2979 42.745C80.2778 42.9185 80.2558 43.0802 80.2318 43.2301C80.2117 43.4037 80.1916 43.5773 80.1715 43.7508C80.1514 43.9244 80.147 44.1197 80.1584 44.3367C80.1934 44.5498 80.1556 44.6898 80.045 44.7567C79.9779 44.792 79.9128 44.7662 79.8499 44.6793C79.7869 44.5924 79.7769 44.6791 79.8197 44.9396C79.871 44.9555 79.8906 45.001 79.8786 45.0759C79.8429 45.1547 79.829 45.2178 79.8368 45.2652C79.8682 45.3087 79.8918 45.3778 79.9073 45.4725C79.9268 45.5909 79.9088 45.7033 79.8533 45.8097C79.7742 45.92 79.7207 46.0383 79.6928 46.1645C79.6808 46.2394 79.6392 46.2827 79.5682 46.2944C79.5445 46.2983 79.507 46.2923 79.4558 46.2764C79.4045 46.2605 79.3671 46.2545 79.3434 46.2584C79.3197 46.2623 79.3118 46.2879 79.3195 46.3353C79.3273 46.3827 79.3901 46.5426 79.5079 46.8151C79.5313 46.9572 79.4719 47.0399 79.3298 47.0633L79.2232 47.0808C79.2424 47.3452 79.238 47.5405 79.2101 47.6667C79.1861 47.8166 79.1444 47.9329 79.0851 48.0156L78.8656 48.2341C78.66 48.4625 78.539 48.7621 78.5027 49.1329C78.4907 49.2079 78.453 49.2749 78.3898 49.3339C78.3028 49.3968 78.2415 49.4677 78.2058 49.5466C78.2097 49.5702 78.2117 49.5821 78.2117 49.5821C78.188 49.586 78.1781 49.5998 78.182 49.6234C78.2287 49.9076 78.1571 50.2113 77.967 50.5344C77.7532 50.8614 77.5336 51.1529 77.3081 51.4089C77.2763 51.5114 77.2327 51.6159 77.1772 51.7223C77.1218 51.8287 77.0525 51.9252 76.9695 52.0118C76.8705 52.1497 76.752 52.2422 76.6138 52.2892C76.4519 52.3402 76.3096 52.4365 76.187 52.5783C76.1436 52.6098 76.1414 52.6709 76.1807 52.7618C76.2239 52.8763 76.2237 52.9493 76.1802 52.9807C75.6901 53.4019 75.1152 53.7518 74.4557 54.0305C73.8001 54.3329 73.1881 54.5308 72.6197 54.6243ZM82.2099 42.613C82.423 42.5779 82.7231 42.4799 83.1101 42.319C83.4932 42.1344 83.835 41.9201 84.1354 41.6761C84.246 41.6093 84.3428 41.5326 84.4259 41.4459C84.5287 41.3318 84.6197 41.2195 84.6988 41.1092C84.778 40.9989 84.8216 40.8944 84.8297 40.7958C84.9011 40.6381 85.0179 40.4608 85.1801 40.2639L85.3401 40.1281C85.4193 40.0178 85.4868 39.8365 85.5426 39.5841L85.6136 39.5724C85.7044 39.5331 85.7558 39.476 85.7678 39.4011L85.9338 39.3008C85.9221 39.2298 85.936 39.1667 85.9756 39.1115C86.0074 39.009 86.0728 38.8888 86.1717 38.751C86.2668 38.5894 86.3065 38.4612 86.2909 38.3665C86.287 38.3428 86.2575 38.3112 86.2023 38.2716C86.2182 38.2204 86.252 38.1297 86.3035 37.9996C86.3749 37.8419 86.4185 37.7375 86.4344 37.6862L86.6417 37.6156L86.7132 37.385L86.7016 37.3139C87.0094 37.2633 87.1202 37.1235 87.0339 36.8945L87.1716 36.1786C87.1878 35.9814 87.2374 35.8394 87.3205 35.7528C87.3049 35.6581 87.307 35.5969 87.3268 35.5694C87.3466 35.5418 87.3625 35.4905 87.3745 35.4156C87.4143 35.2145 87.4445 34.9541 87.4649 34.6346C87.509 34.3111 87.5311 34.1494 87.5311 34.1494L87.3895 33.9538C87.3817 33.9064 87.3345 33.8412 87.2478 33.7582C87.1849 33.6712 87.1594 33.5903 87.1714 33.5154C87.1915 33.3418 87.2569 33.2216 87.3675 33.1548C87.5018 33.084 87.5197 33.0446 87.421 33.0365L87.3855 33.0423C87.3145 33.054 87.2335 33.0795 87.1427 33.1188C87.0755 33.1541 86.9867 33.2052 86.876 33.2721C86.7417 33.3428 86.6134 33.3761 86.4911 33.3718C86.3688 33.3676 86.276 33.395 86.2128 33.4541C85.9876 33.5641 85.7585 33.7234 85.5252 33.932C85.2881 34.1169 85.037 34.3649 84.772 34.6761C84.7522 34.7037 84.7244 34.7569 84.6888 34.8357C84.6531 34.9145 84.6155 34.9815 84.5759 35.0367C84.5561 35.0642 84.5107 35.0839 84.4396 35.0956C84.3923 35.1033 84.3488 35.1348 84.3092 35.19C84.2894 35.2175 84.2953 35.2531 84.3267 35.2965C84.3582 35.34 84.366 35.3874 84.3501 35.4386C84.3066 35.4701 84.2632 35.5016 84.2197 35.533C84.1762 35.5645 84.1347 35.6078 84.0951 35.663L84.0178 35.8581C83.6892 36.3743 83.2736 36.9534 82.7711 37.5954C82.2923 38.2336 81.8945 38.8462 81.5776 39.4334L86.3716 36.6385C86.502 36.5441 86.6264 36.4872 86.7448 36.4677C86.7883 36.4362 86.8514 36.4502 86.9341 36.5095C86.9656 36.553 86.9497 36.6043 86.8864 36.6633C86.8469 36.7185 86.8133 36.7361 86.7857 36.7164L86.6023 36.71C86.5825 36.7376 86.5409 36.7809 86.4777 36.84C86.4381 36.8951 86.3946 36.9266 86.3473 36.9344L86.1813 37.0346C86.1616 37.0622 86.1161 37.0818 86.0451 37.0935C85.9741 37.1052 85.9286 37.1248 85.9088 37.1524C85.8654 37.1839 85.8337 37.2134 85.814 37.241C85.7903 37.2449 85.7586 37.2744 85.7191 37.3296C85.2133 37.6559 84.6661 38.0256 84.0773 38.4387C83.4846 38.828 82.9393 39.2095 82.4413 39.5833C81.8169 40.0751 81.4036 40.5201 81.2015 40.9181C80.9955 41.2925 80.9139 41.61 80.9568 41.8705C80.9918 42.0836 81.0822 42.2633 81.2279 42.4096C81.3696 42.5323 81.5273 42.6036 81.7009 42.6237C81.8744 42.6438 82.0441 42.6402 82.2099 42.613Z" fill="#4B93FF"/>
<path d="M90.7728 41.4193C90.6289 41.4266 90.5528 41.3464 90.5442 41.1786C90.5381 41.0588 90.5667 40.9131 90.6301 40.7417C90.8011 40.3244 90.9875 39.7382 91.1894 38.9829C91.4152 38.2265 91.7064 37.5748 92.063 37.028C92.1695 36.7582 92.3327 36.4255 92.5529 36.0297C92.7958 35.6088 93.0231 35.1166 93.2347 34.5532L93.2255 34.3734C93.2218 34.3015 93.2188 34.2416 93.2164 34.1936C93.2367 34.1205 93.257 34.0474 93.2773 33.9742C93.3634 33.7776 93.4406 33.6415 93.5088 33.5659C93.601 33.4891 93.6902 33.3524 93.7763 33.1558C93.7738 33.1079 93.7714 33.0599 93.769 33.012C93.7905 32.9628 93.812 32.9137 93.8335 32.8645C93.788 32.9149 93.7742 32.8795 93.7921 32.7585C93.7441 32.7609 93.786 32.6386 93.9176 32.3916C94.0025 32.171 94.0683 32.0475 94.115 32.0211L94.151 32.0193C94.2395 31.8706 94.3173 31.7464 94.3843 31.6469C94.4501 31.5234 94.4704 31.4503 94.4452 31.4275L94.4416 31.3556C94.433 31.1878 94.473 31.0296 94.5616 30.8809C94.6741 30.731 94.774 30.5697 94.8613 30.397C94.9284 30.2975 94.9858 30.2465 95.0338 30.2441C95.0817 30.2416 95.1063 30.2524 95.1075 30.2763C95.1315 30.2751 95.1555 30.2739 95.1794 30.2727C95.2513 30.269 95.2842 30.2073 95.2781 30.0874C95.2757 30.0395 95.2607 29.9802 95.233 29.9095C95.2294 29.8376 95.2131 29.7543 95.1843 29.6596C95.2021 29.5386 95.2931 29.4378 95.4572 29.3574L95.5633 29.3159C95.6575 28.8065 95.7842 28.4636 95.9434 28.2872C95.9889 28.2369 96.0344 28.1865 96.0799 28.1361C96.1254 28.0857 96.1709 28.0353 96.2164 27.985C96.4882 27.6587 96.6868 27.3122 96.8123 26.9453C96.8553 26.847 96.9116 26.772 96.9811 26.7204C97.0733 26.6436 97.1529 26.5555 97.2199 26.4559C97.2642 26.3816 97.2725 26.3091 97.2449 26.2384C97.24 26.1425 97.2477 26.058 97.268 25.9849C97.3781 25.787 97.4565 25.6749 97.5032 25.6485C97.5499 25.6221 97.5966 25.5957 97.6434 25.5693C97.7128 25.5177 97.8272 25.4037 97.9864 25.2274C98.0522 25.1039 98.118 24.9803 98.1838 24.8568C98.2736 24.7321 98.3634 24.6074 98.4531 24.4827C98.5884 24.3075 98.7381 24.1798 98.9022 24.0993C99.0663 24.0189 99.2286 23.9025 99.3891 23.7501C99.4346 23.6997 99.4549 23.6266 99.45 23.5307C99.4439 23.4109 99.4636 23.3258 99.5091 23.2754C100.314 22.5615 101.184 21.9525 102.12 21.4482C103.079 20.9427 103.822 20.6766 104.35 20.6497C104.542 20.64 104.722 20.6428 104.891 20.6582C105.084 20.6724 105.265 20.6992 105.436 20.7386L105.508 20.7349C105.627 20.7288 105.749 20.7467 105.871 20.7885C105.993 20.8304 106.103 20.8728 106.202 20.9159C106.298 20.911 106.419 20.9288 106.565 20.9695C106.687 21.0113 106.763 21.0795 106.792 21.1742C106.82 21.2688 106.8 21.342 106.731 21.3936C106.708 21.4188 106.672 21.4206 106.623 21.3991C106.574 21.3775 106.525 21.368 106.477 21.3704C106.429 21.3729 106.38 21.3513 106.33 21.3059C106.279 21.2604 106.23 21.2268 106.18 21.2053C106.085 21.2102 105.977 21.2277 105.859 21.2578C105.764 21.2866 105.657 21.3041 105.537 21.3102L105.429 21.3157C105.261 21.3242 105.14 21.3064 105.066 21.2621C105.014 21.1926 104.894 21.1867 104.704 21.2445C104.681 21.2457 104.609 21.2613 104.491 21.2914C104.372 21.3215 104.289 21.3377 104.241 21.3402C103.389 21.5998 102.652 21.9978 102.031 22.5341C101.408 23.0465 100.86 23.6151 100.387 24.2399C99.9384 24.8636 99.5003 25.4626 99.073 26.0371C98.8793 26.4796 98.6812 26.8381 98.479 27.1127C98.4562 27.1379 98.4316 27.1272 98.4052 27.0805C98.3788 27.0337 98.3548 27.035 98.3333 27.0841C98.2651 27.1597 98.2113 27.2826 98.1719 27.4528C98.1552 27.5978 98.1134 27.7201 98.0464 27.8197C98.0236 27.8449 97.999 27.8341 97.9726 27.7874C97.9462 27.7407 97.9103 27.7425 97.8648 27.7929C97.842 27.8181 97.8109 27.9158 97.7716 28.086C97.7549 28.231 97.7238 28.3287 97.6783 28.3791C97.4103 28.7773 97.1176 29.1647 96.8003 29.5413C96.4831 29.9179 96.1689 30.3545 95.8577 30.8509C95.4162 31.6184 94.998 32.3726 94.6032 33.1137C94.2084 33.8547 93.7933 34.6689 93.3578 35.5562C93.2047 35.8524 93.0863 36.1227 93.0027 36.3673C92.9417 36.5867 92.8682 36.7947 92.7821 36.9913C92.7378 37.0657 92.7187 37.1628 92.7249 37.2826C92.7334 37.4504 92.8335 37.5294 93.0253 37.5196C93.1691 37.5123 93.3111 37.469 93.4512 37.3898L93.8035 37.2277C94.3519 36.6711 94.9285 36.1971 95.5334 35.8058C95.5573 35.8046 95.5693 35.804 95.5693 35.804C95.5921 35.7788 95.6154 35.7656 95.6394 35.7644C95.7113 35.7607 95.7617 35.8062 95.7905 35.9009C95.8182 35.9716 95.7972 36.0327 95.7278 36.0843C95.0522 36.5032 94.4301 37.0275 93.8614 37.6573C93.8399 37.7065 93.8183 37.7556 93.7968 37.8048C93.7753 37.8539 93.7418 37.9037 93.6963 37.9541C93.6508 38.0045 93.5831 38.092 93.4934 38.2167C93.4276 38.3402 93.3953 38.414 93.3965 38.438C93.3762 38.5111 93.3415 38.5369 93.2923 38.5154C93.2671 38.4926 93.197 38.5322 93.0821 38.6342C93.0593 38.6594 93.0378 38.7085 93.0175 38.7817C93.0212 38.8536 93.0122 38.9141 92.9907 38.9633C92.9704 39.0364 92.9255 39.0988 92.856 39.1504C92.8093 39.1768 92.7866 39.202 92.7878 39.2259C92.7687 39.323 92.7238 39.3854 92.6531 39.413C92.6052 39.4155 92.5585 39.4419 92.513 39.4923C92.4902 39.5175 92.4921 39.5534 92.5185 39.6001C92.5449 39.6468 92.5353 39.6954 92.4898 39.7458C92.4695 39.8189 92.4474 39.8561 92.4234 39.8573C92.3982 39.8345 92.3629 39.8484 92.3174 39.8987C92.2264 39.9995 92.157 40.0511 92.109 40.0535C91.9676 40.1088 91.9095 40.1478 91.9347 40.1706C91.9839 40.1921 92.0211 40.2142 92.0463 40.237C92.0942 40.2345 92.0601 40.2723 91.9439 40.3503C91.8972 40.3767 91.8529 40.4511 91.8111 40.5734C91.768 40.6717 91.7237 40.746 91.6782 40.7964C91.6088 40.848 91.5387 40.8876 91.468 40.9153C91.4213 40.9417 91.3638 40.9927 91.2956 41.0682C91.0908 41.2949 90.9166 41.412 90.7728 41.4193Z" fill="#4B93FF"/>
<path d="M98.9172 41.1934C98.318 41.1634 97.799 40.9691 97.3605 40.6107C96.9219 40.2522 96.723 39.6655 96.7639 38.8506C96.7795 38.539 96.8311 38.2292 96.9187 37.9212C97.0074 37.5892 97.1076 37.2698 97.2191 36.963C97.2827 36.6538 97.3684 36.3818 97.4763 36.1469C97.5051 36.0522 97.5195 36.0049 97.5195 36.0049C97.5446 35.9821 97.6064 35.9491 97.7047 35.906L98.0139 35.489L98.0212 35.3452C97.9972 35.344 97.9852 35.3434 97.9852 35.3434C97.9864 35.3194 97.987 35.3074 97.987 35.3074C97.9906 35.2355 98.0548 35.1546 98.1794 35.0647C98.3041 34.9749 98.3664 34.9299 98.3664 34.9299C98.3964 34.8113 98.4354 34.7532 98.4833 34.7556C98.5312 34.758 98.593 34.725 98.6685 34.6567L99.064 34.6766L99.0676 34.6047C99.0736 34.4848 99.0161 34.4339 98.895 34.4518C98.7991 34.447 98.7518 34.4326 98.753 34.4087C98.7542 34.3847 98.7926 34.3386 98.8681 34.2703C98.9688 34.1792 99.0317 34.1223 99.0569 34.0995C99.1336 34.0072 99.1977 33.9264 99.2493 33.8568C99.302 33.7634 99.3776 33.6951 99.4758 33.6519C99.9338 33.1463 100.214 32.8239 100.317 32.6849C100.444 32.5471 100.57 32.4452 100.693 32.3793C100.741 32.3818 100.776 32.4075 100.797 32.4567C100.844 32.483 100.842 32.519 100.792 32.5645C100.836 32.6388 100.872 32.6526 100.898 32.6059C100.948 32.5604 100.974 32.5376 100.974 32.5376L101.121 32.4729C101.075 32.4226 101.055 32.3614 101.058 32.2895C101.064 32.1697 101.093 32.075 101.144 32.0055C101.197 31.912 101.286 31.8204 101.411 31.7305C101.559 31.6418 101.634 31.5855 101.635 31.5615C101.782 31.5208 101.892 31.4783 101.966 31.434C102.064 31.3908 102.161 31.3717 102.257 31.3765C102.425 31.3849 102.59 31.4532 102.752 31.5815C103.195 31.8441 103.567 32.103 103.866 32.3583C104.166 32.6137 104.305 32.9571 104.283 33.3885C104.26 33.844 104.049 34.2298 103.648 34.5462C103.273 34.8397 102.816 35.0811 102.278 35.2704C101.74 35.4597 101.204 35.613 100.669 35.7304C100.16 35.8249 99.7595 35.901 99.4682 35.9585C99.2993 35.974 99.2118 36.0417 99.2057 36.1616C99.2249 36.2586 99.2075 36.3659 99.1535 36.4833L98.882 36.8662L98.641 37.3588L98.445 37.6733C98.27 37.8087 98.2047 37.9136 98.249 37.9879C98.2933 38.0622 98.3778 38.0544 98.5025 37.9646C98.5253 37.9898 98.5354 38.0263 98.533 38.0743C98.5282 38.1701 98.4982 38.2888 98.4431 38.4302C98.3891 38.5476 98.3484 38.6417 98.3208 38.7124C98.292 38.8071 98.2896 38.855 98.3136 38.8562C98.3627 38.8347 98.3843 38.8838 98.3783 39.0037L98.389 39.5088C98.5099 39.9715 98.8203 40.2514 99.3201 40.3485C99.368 40.351 99.4153 40.3653 99.4621 40.3917C99.534 40.3953 99.5939 40.3983 99.6418 40.4007C100.073 40.4224 100.303 40.3979 100.33 40.3272C100.382 40.2577 100.444 40.2127 100.517 40.1924C100.736 40.1552 100.918 40.1163 101.064 40.0756C101.234 40.0361 101.406 39.9726 101.578 39.8851C101.872 39.7797 102.155 39.6377 102.429 39.4592C102.702 39.2807 102.987 39.1028 103.284 38.9254L103.657 38.6918C103.683 38.6451 103.685 38.6091 103.662 38.5839C103.639 38.5588 103.64 38.5348 103.666 38.512C103.715 38.4904 103.751 38.4923 103.773 38.5174C103.821 38.5198 103.858 38.5097 103.883 38.4869C103.932 38.4653 103.982 38.4318 104.032 38.3862C104.084 38.3167 104.135 38.2592 104.185 38.2137C104.236 38.1681 104.262 38.1214 104.264 38.0735C104.291 38.0267 104.329 37.9806 104.379 37.9351C104.581 37.7529 104.783 37.5588 104.985 37.3527C105.212 37.1478 105.401 36.9651 105.553 36.8045C105.733 36.5732 105.871 36.46 105.967 36.4648C106.015 36.4672 106.038 36.4924 106.035 36.5403C106.029 36.6601 105.936 36.8357 105.757 37.067C105.319 37.6458 104.822 38.2096 104.266 38.7584C103.711 39.2833 103.11 39.7578 102.464 40.1819C101.993 40.4707 101.44 40.7193 100.805 40.9277C100.17 41.1361 99.5404 41.2247 98.9172 41.1934ZM99.747 35.4318C100.108 35.4258 100.58 35.3534 101.164 35.2145C101.749 35.0516 102.241 34.824 102.64 34.5316C103.064 34.2165 103.286 33.8552 103.307 33.4477C103.326 33.0642 103.141 32.6824 102.752 32.3024C102.404 32.5253 102.015 32.8542 101.585 33.2892C101.18 33.7014 100.81 34.1154 100.477 34.5312C100.145 34.9231 99.9016 35.2233 99.747 35.4318Z" fill="#4B93FF"/>
<path d="M114.761 43.3948C114.183 43.2324 113.72 42.9278 113.372 42.481C113.024 42.0341 112.961 41.4179 113.181 40.6324C113.266 40.332 113.385 40.0414 113.539 39.7605C113.699 39.4565 113.867 39.1673 114.044 38.8929C114.175 38.6056 114.319 38.3593 114.476 38.1543C114.525 38.0683 114.55 38.0254 114.55 38.0254C114.579 38.0088 114.647 37.9903 114.752 37.9701L115.146 37.6322L115.185 37.4935C115.162 37.487 115.151 37.4838 115.151 37.4838C115.157 37.4607 115.16 37.4491 115.16 37.4491C115.18 37.3798 115.26 37.3152 115.402 37.2552C115.543 37.1953 115.614 37.1653 115.614 37.1653C115.67 37.0563 115.721 37.0083 115.767 37.0212C115.813 37.0342 115.881 37.0158 115.969 36.966L116.351 37.0731L116.37 37.0038C116.403 36.8883 116.358 36.8258 116.236 36.8165C116.143 36.7905 116.1 36.766 116.107 36.7429C116.113 36.7198 116.161 36.6833 116.25 36.6334C116.368 36.567 116.442 36.5255 116.472 36.5089C116.567 36.4359 116.648 36.3713 116.713 36.315C116.785 36.2355 116.874 36.1857 116.98 36.1655C117.538 35.7741 117.883 35.522 118.015 35.4094C118.169 35.3032 118.314 35.2317 118.449 35.1949C118.495 35.2078 118.523 35.2407 118.534 35.2934C118.573 35.3295 118.564 35.3641 118.504 35.3974C118.531 35.4797 118.562 35.501 118.599 35.4612C118.658 35.428 118.687 35.4114 118.687 35.4114L118.845 35.3811C118.812 35.3219 118.805 35.2576 118.825 35.1883C118.857 35.0728 118.906 34.9868 118.972 34.9305C119.044 34.8511 119.151 34.7814 119.293 34.7214C119.457 34.668 119.543 34.6297 119.549 34.6066C119.701 34.5994 119.818 34.5824 119.9 34.5556C120.006 34.5354 120.104 34.5383 120.197 34.5643C120.359 34.6097 120.504 34.7129 120.633 34.8739C121.007 35.2283 121.312 35.5633 121.548 35.8788C121.783 36.1942 121.842 36.5599 121.725 36.9758C121.602 37.4148 121.31 37.7441 120.849 37.9636C120.418 38.1666 119.92 38.3006 119.353 38.3657C118.786 38.4308 118.229 38.4612 117.682 38.4569C117.164 38.4361 116.757 38.4214 116.46 38.4128C116.292 38.3904 116.192 38.437 116.159 38.5525C116.156 38.6514 116.116 38.7521 116.037 38.8547L115.687 39.1677L115.343 39.5945L115.082 39.8577C114.881 39.9509 114.794 40.0386 114.821 40.1209C114.848 40.2032 114.932 40.2144 115.073 40.1544C115.09 40.184 115.092 40.2219 115.079 40.2681C115.053 40.3606 114.997 40.4696 114.912 40.5952C114.833 40.6978 114.773 40.7805 114.73 40.8433C114.681 40.9292 114.668 40.9754 114.691 40.9819C114.744 40.9718 114.754 41.0245 114.721 41.14L114.62 41.635C114.635 42.1129 114.875 42.4547 115.341 42.6604C115.387 42.6734 115.43 42.6979 115.47 42.734C115.539 42.7535 115.597 42.7697 115.643 42.7827C116.059 42.8996 116.288 42.9267 116.331 42.8638C116.397 42.8075 116.467 42.7775 116.543 42.7739C116.764 42.7861 116.95 42.7886 117.102 42.7814C117.277 42.7806 117.458 42.7568 117.646 42.7098C117.955 42.6722 118.263 42.5967 118.57 42.4833C118.876 42.3699 119.193 42.2597 119.522 42.1528L119.937 42.0076C119.973 41.9679 119.983 41.9333 119.966 41.9037C119.95 41.8741 119.956 41.851 119.986 41.8344C120.039 41.8242 120.073 41.834 120.09 41.8636C120.136 41.8766 120.174 41.8748 120.204 41.8581C120.256 41.848 120.312 41.8264 120.371 41.7931C120.437 41.7368 120.5 41.692 120.559 41.6588C120.618 41.6256 120.654 41.5859 120.667 41.5397C120.703 41.4999 120.751 41.4635 120.81 41.4303C121.047 41.2974 121.287 41.1529 121.53 40.9969C121.797 40.8474 122.022 40.7113 122.206 40.5885C122.432 40.4029 122.592 40.3231 122.684 40.3491C122.731 40.3621 122.747 40.3917 122.734 40.4379C122.702 40.5534 122.572 40.704 122.346 40.8896C121.79 41.3568 121.181 41.7962 120.517 42.2079C119.859 42.5964 119.168 42.9258 118.444 43.1959C117.921 43.3729 117.326 43.4925 116.66 43.5547C115.995 43.6169 115.362 43.5636 114.761 43.3948ZM116.849 37.9611C117.202 38.0354 117.679 38.0696 118.278 38.0637C118.885 38.0347 119.415 37.922 119.869 37.7255C120.353 37.5125 120.65 37.2095 120.76 36.8168C120.864 36.4471 120.769 36.0338 120.473 35.5768C120.085 35.7169 119.633 35.9513 119.116 36.2799C118.63 36.5919 118.178 36.9136 117.761 37.2451C117.35 37.5534 117.046 37.7921 116.849 37.9611Z" fill="#4B93FF"/>
<path d="M123.569 40.8507C123.414 40.7866 123.286 40.7205 123.184 40.6525C123.082 40.5846 123.047 40.5441 123.078 40.531C123.119 40.4958 123.137 40.4515 123.133 40.3979C123.138 40.3222 123.146 40.2733 123.155 40.2511C123.173 40.2067 123.234 40.1539 123.337 40.0927C123.462 40.0406 123.559 39.9636 123.627 39.8619C123.738 39.9077 123.872 39.898 124.029 39.8329C124.01 39.8772 124.014 39.9308 124.04 39.9935C124.049 39.9713 124.07 39.9537 124.101 39.9406C124.101 39.9406 124.118 39.9609 124.154 40.0014C124.22 40.0289 124.249 40.0537 124.24 40.0759C124.347 40.0682 124.438 40.0669 124.514 40.0722C124.59 40.0775 124.676 40.0874 124.774 40.1019C124.797 40.111 124.792 40.1221 124.761 40.1351C124.751 40.1573 124.753 40.1841 124.766 40.2154L124.88 40.2234C124.871 40.2455 124.997 40.2848 125.26 40.3412C125.522 40.3976 125.664 40.4304 125.687 40.4395L125.82 40.4945C125.997 40.5678 126.139 40.6005 126.246 40.5928C126.278 40.5798 126.331 40.6405 126.405 40.7751C126.51 40.8966 126.584 40.9397 126.624 40.9045C126.678 40.9006 126.798 40.9242 126.984 40.9753C127.193 41.0356 127.306 41.1081 127.323 41.193C127.354 41.18 127.392 41.1826 127.436 41.201C127.444 41.308 127.428 41.3791 127.387 41.4143C127.356 41.4274 127.347 41.4496 127.36 41.4809C127.404 41.4992 127.442 41.5019 127.473 41.4888C127.505 41.4758 127.527 41.485 127.54 41.5163C127.562 41.5255 127.578 41.519 127.587 41.4968C127.596 41.4746 127.616 41.457 127.648 41.444C127.714 41.4714 127.781 41.4989 127.847 41.5264C127.914 41.5539 127.996 41.5748 128.094 41.5893C128.102 41.6963 128.117 41.7545 128.139 41.7636C128.183 41.7819 128.259 41.7872 128.366 41.7795C128.504 41.7587 128.58 41.764 128.593 41.7954C128.593 41.7954 128.619 41.8581 128.671 41.9834C128.734 41.9574 128.765 41.9444 128.765 41.9444C128.876 41.9902 129.003 42.0294 129.145 42.0622C129.319 42.082 129.412 42.1075 129.425 42.1388C129.469 42.1572 129.476 42.1728 129.444 42.1859C129.413 42.1989 129.404 42.2211 129.417 42.2524C129.439 42.2616 129.455 42.2551 129.464 42.2329C129.495 42.2198 129.522 42.2179 129.544 42.2271C129.58 42.2676 129.593 42.2989 129.583 42.3211C129.583 42.3211 129.59 42.3368 129.603 42.3681C129.706 42.3069 129.816 42.2613 129.932 42.2314C130.07 42.2106 130.208 42.2545 130.345 42.3629C130.389 42.3813 130.396 42.3969 130.365 42.41C130.342 42.4008 130.342 42.4008 130.365 42.41C130.603 42.5864 130.714 42.6968 130.695 42.7412C130.668 42.8078 130.556 42.8266 130.36 42.7977C130.165 42.7688 130.056 42.7497 130.033 42.7406C130.02 42.7092 130.014 42.6936 130.014 42.6936C130.036 42.7027 130.047 42.7073 130.047 42.7073L129.981 42.6798C129.936 42.6615 129.816 42.6379 129.62 42.609C129.434 42.5579 129.28 42.5205 129.16 42.4969C129.085 42.4916 128.966 42.4948 128.806 42.5064C128.654 42.4958 128.556 42.4813 128.512 42.463C128.49 42.4539 128.414 42.4486 128.285 42.4471C128.165 42.4235 128.083 42.4026 128.038 42.3842C128.025 42.3529 128.03 42.3418 128.052 42.351C128.083 42.3379 128.081 42.3112 128.046 42.2707C128.024 42.2615 128.004 42.2791 127.986 42.3235C127.999 42.3548 127.983 42.3613 127.939 42.343C127.894 42.3247 127.828 42.2972 127.739 42.2606C127.681 42.2109 127.619 42.1724 127.553 42.1449C127.375 42.0716 127.235 42.0656 127.132 42.1269L127.065 42.0994C127.043 42.0902 127.026 42.07 127.013 42.0386C127.009 41.9851 126.985 41.9492 126.94 41.9309C126.852 41.8942 126.76 41.8955 126.666 41.9345C126.626 41.9697 126.512 41.9618 126.325 41.9107C126.161 41.8688 125.968 41.802 125.746 41.7104C125.48 41.6005 125.218 41.4795 124.961 41.3474C124.704 41.2153 124.547 41.1244 124.489 41.0748C124.467 41.0656 124.436 41.0786 124.395 41.1139C124.386 41.136 124.364 41.1269 124.329 41.0864C124.307 41.0772 124.307 41.0772 124.329 41.0864C124.36 41.0734 124.354 41.0577 124.309 41.0394C124.287 41.0302 124.229 41.0452 124.135 41.0842C124.166 41.0712 124.176 41.049 124.163 41.0177C124.087 41.0124 123.989 40.9979 123.869 40.9743C123.78 40.9377 123.68 40.8965 123.569 40.8507Z" fill="#4B93FF"/>
<path d="M139.077 41.2049C139.014 41.1705 138.962 41.115 138.921 41.0385C138.902 40.9734 138.868 40.8863 138.818 40.7772C138.787 40.7332 138.746 40.6835 138.694 40.628C138.675 40.5629 138.688 40.4882 138.734 40.4038C138.724 40.3713 138.688 40.3378 138.624 40.3035C138.519 40.2462 138.506 40.1437 138.586 39.9961C138.678 39.8274 138.825 39.7572 139.029 39.7856L139.255 39.745L139.238 39.7766L139.451 39.6872L139.514 39.7216C139.641 39.7903 139.759 39.7729 139.87 39.6693C140.002 39.5771 140.175 39.5615 140.387 39.6224C140.537 39.649 140.636 39.7168 140.686 39.8259C140.736 39.935 140.825 40.0239 140.951 40.0927C141.078 40.1614 141.238 40.1937 141.431 40.1896L141.957 40.3524C142.02 40.3868 142.041 40.4251 142.018 40.4673C141.995 40.5094 141.903 40.5278 141.742 40.5223C141.602 40.5283 141.5 40.5409 141.435 40.5602L141.386 40.5746L141.32 40.6207L141.107 40.7101C140.901 40.789 140.656 40.8881 140.372 41.0073C140.122 41.1169 139.878 41.1891 139.64 41.224C139.37 41.2685 139.182 41.2621 139.077 41.2049ZM128.855 48.5571C128.729 48.4883 128.706 48.3802 128.786 48.2325C128.843 48.1271 128.943 48.0177 129.087 47.9045C129.45 47.6376 129.915 47.2346 130.481 46.6954C131.068 46.1677 131.657 45.7635 132.246 45.4829C132.73 45.145 133.187 44.8061 133.618 44.4664C134.081 44.117 134.533 43.7619 134.975 43.4011C134.975 43.4011 134.96 43.3791 134.929 43.335C134.931 43.2814 134.943 43.2335 134.966 43.1913C134.885 43.0382 134.811 42.8478 134.744 42.62C134.709 42.3825 134.79 42.2081 134.987 42.0966C135.052 42.0774 135.095 42.0735 135.116 42.0849C135.137 42.0964 135.148 42.1021 135.148 42.1021C135.159 42.081 135.155 42.0648 135.134 42.0533C135.145 42.0322 135.151 42.0217 135.151 42.0217C135.197 41.9373 135.267 41.9075 135.363 41.9322C135.459 41.957 135.518 41.9483 135.541 41.9061C135.744 41.6338 136.117 41.5498 136.661 41.6542C137.206 41.7587 137.657 41.9083 138.015 42.103C138.374 42.2978 138.524 42.4479 138.467 42.5534C138.444 42.5955 138.341 42.635 138.157 42.6717C138.071 42.6795 137.914 42.7171 137.686 42.7845C137.458 42.8519 137.224 42.9567 136.983 43.0989L136.523 43.341C136.479 43.3717 136.419 43.4072 136.343 43.4476C136.299 43.4783 136.244 43.5033 136.179 43.5226C135.509 43.9508 134.954 44.3186 134.514 44.6258C134.074 44.933 133.529 45.3333 132.879 45.8266C132.768 45.9302 132.701 46.0031 132.678 46.0453C132.598 46.1929 132.642 46.3126 132.811 46.4042C132.937 46.473 133.081 46.5101 133.242 46.5155L133.627 46.5609C134.385 46.3719 135.124 46.2682 135.845 46.2497C135.866 46.2612 135.876 46.2669 135.876 46.2669C135.909 46.2573 135.935 46.2582 135.957 46.2696C136.02 46.304 136.039 46.3691 136.014 46.4649C136.001 46.5396 135.951 46.5809 135.865 46.5887C135.07 46.5939 134.266 46.7169 133.452 46.9577C133.408 46.9884 133.364 47.0191 133.32 47.0498C133.276 47.0805 133.222 47.1055 133.157 47.1248C133.092 47.1441 132.988 47.1835 132.847 47.2431C132.726 47.3142 132.66 47.3603 132.649 47.3814C132.593 47.4332 132.55 47.4371 132.519 47.3931C132.51 47.3605 132.429 47.3578 132.278 47.3848C132.245 47.3945 132.201 47.4252 132.146 47.477C132.112 47.5403 132.072 47.5873 132.028 47.618C131.973 47.6698 131.902 47.6996 131.816 47.7074C131.762 47.7056 131.73 47.7152 131.718 47.7363C131.651 47.8092 131.581 47.839 131.506 47.8257C131.464 47.8028 131.41 47.801 131.345 47.8203C131.312 47.8299 131.295 47.8615 131.293 47.9152C131.292 47.9688 131.258 48.0052 131.193 48.0245C131.138 48.0763 131.099 48.0965 131.078 48.085C131.069 48.0525 131.031 48.0458 130.966 48.0651C130.836 48.1036 130.75 48.1114 130.708 48.0885C130.558 48.062 130.488 48.065 130.498 48.0975C130.529 48.1415 130.549 48.1798 130.558 48.2123C130.601 48.2352 130.552 48.2497 130.412 48.2557C130.358 48.2538 130.282 48.2942 130.182 48.3767C130.094 48.4382 130.018 48.4785 129.953 48.4978C129.866 48.5056 129.786 48.5028 129.711 48.4896C129.658 48.4877 129.582 48.5013 129.484 48.5302C129.191 48.6169 128.982 48.6258 128.855 48.5571Z" fill="#4B93FF"/>
<path d="M134.045 51.4086C133.929 51.3234 133.92 51.2131 134.02 51.0776C134.091 50.9809 134.205 50.8861 134.363 50.7933C134.759 50.5779 135.283 50.2485 135.936 49.8048C136.589 49.3612 137.227 49.0402 137.849 48.8417L140.834 47.1474C140.834 47.1474 140.822 47.1235 140.797 47.0758C140.787 47.0087 140.796 46.9558 140.824 46.9171C140.765 46.7545 140.717 46.5558 140.681 46.3209C140.679 46.081 140.783 45.9191 140.993 45.8353C141.06 45.825 141.103 45.8269 141.123 45.8411C141.142 45.8553 141.152 45.8624 141.152 45.8624L141.194 45.8044C141.251 45.727 141.316 45.6999 141.388 45.7232C141.479 45.7606 141.549 45.7671 141.597 45.7426C141.834 45.5001 142.206 45.4602 142.712 45.623C143.237 45.7999 143.664 46.0091 143.993 46.2505C144.322 46.4919 144.451 46.661 144.38 46.7577C144.337 46.8158 144.229 46.8409 144.056 46.8331C143.989 46.8434 143.829 46.8595 143.574 46.8813C143.34 46.9173 143.093 46.9895 142.835 47.0978L142.376 47.297L141.981 47.4091C141.26 47.743 140.661 48.0324 140.183 48.2774C139.706 48.5224 139.111 48.8454 138.4 49.2464C138.257 49.3199 138.157 49.3953 138.1 49.4727C138.029 49.5695 138.032 49.6462 138.11 49.703C138.148 49.7314 138.194 49.7502 138.247 49.7592C138.334 49.7631 138.413 49.7767 138.485 49.7999C138.711 49.8168 138.901 49.822 139.054 49.8156C139.241 49.8041 139.438 49.7996 139.645 49.8023C139.745 49.7869 139.794 49.8224 139.79 49.9088C139.8 49.9759 139.757 50.0339 139.662 50.0829C139.471 50.1809 139.342 50.2351 139.275 50.2454C139.241 50.2505 139.198 50.2486 139.145 50.2395C139.092 50.2305 138.941 50.2536 138.692 50.309L138.406 50.456C138.339 50.4663 138.233 50.5082 138.09 50.5817C137.98 50.65 137.918 50.6939 137.904 50.7132C137.876 50.7519 137.842 50.7571 137.804 50.7287C137.779 50.6809 137.7 50.6674 137.566 50.688C137.532 50.6931 137.494 50.7247 137.451 50.7827C137.428 50.855 137.383 50.8963 137.316 50.9066C137.254 50.9504 137.189 50.9775 137.122 50.9878C137.069 50.9787 137.036 50.9839 137.022 51.0032C136.945 51.0664 136.871 51.0864 136.799 51.0631C136.76 51.0347 136.707 51.0257 136.64 51.036C136.621 51.0218 136.597 51.034 136.569 51.0727C136.455 51.2275 136.386 51.281 136.362 51.2333C136.337 51.1856 136.284 51.1765 136.203 51.2061C136.107 51.2551 136.031 51.2583 135.973 51.2157C135.828 51.1692 135.758 51.1628 135.764 51.1963C135.769 51.2299 135.784 51.2705 135.808 51.3183C135.847 51.3467 135.796 51.3544 135.657 51.3414C135.585 51.3182 135.494 51.3407 135.384 51.4091C135.289 51.4581 135.207 51.4877 135.14 51.498C135.073 51.5083 135.004 51.5018 134.931 51.4786C134.859 51.4553 134.782 51.4585 134.701 51.4882C134.399 51.5345 134.18 51.508 134.045 51.4086ZM142.864 57.5237C142.787 57.4669 142.719 57.4172 142.661 57.3746C142.617 57.3126 142.573 57.2507 142.529 57.1887C142.364 57.008 142.233 56.8222 142.135 56.6312C142.056 56.4544 142.047 56.2241 142.106 55.9403C142.158 55.8293 142.202 55.668 142.238 55.4565C142.293 55.2591 142.361 55.0856 142.441 54.9359C142.493 54.825 142.568 54.7018 142.668 54.5663C142.719 54.4554 142.802 54.3225 142.916 54.1677C143.019 53.9459 143.127 53.7575 143.241 53.6027C143.374 53.4621 143.519 53.2854 143.675 53.0726C143.831 52.8598 143.954 52.7121 144.045 52.6295C144.211 52.4838 144.294 52.4109 144.294 52.4109C144.308 52.3916 144.379 52.2948 144.507 52.1207C144.697 51.9027 144.884 51.6679 145.069 51.4164C145.253 51.1649 145.412 50.9688 145.545 50.8282C146.029 50.2904 146.126 49.9149 145.836 49.7019C145.72 49.6168 145.529 49.5515 145.265 49.5063C145.203 49.5501 145.136 49.5604 145.064 49.5372C145.025 49.5088 144.953 49.4855 144.847 49.4674L144.638 49.448C144.624 49.4673 144.597 49.4628 144.559 49.4344C144.534 49.3867 144.508 49.3821 144.479 49.4208C144.442 49.5124 144.397 49.5537 144.344 49.5446C144.31 49.5498 144.288 49.5188 144.278 49.4517L143.788 49.4496C143.774 49.469 143.717 49.4864 143.616 49.5018L143.566 49.5095C143.431 49.5301 143.335 49.5191 143.277 49.4765L143.126 49.4997C143.112 49.519 143.064 49.5435 142.983 49.5732C142.935 49.5977 142.88 49.5719 142.817 49.4957L142.565 49.5343C142.402 49.5936 142.285 49.6116 142.213 49.5884C142.16 49.5793 142.097 49.5632 142.025 49.5399L141.58 49.6598L141.443 49.6036C141.386 49.681 141.213 49.7332 140.926 49.7602C140.657 49.8014 140.473 49.8297 140.372 49.8451C140.272 49.8606 140.192 49.847 140.134 49.8044C140.095 49.776 140.09 49.7425 140.119 49.7038C140.133 49.6844 140.238 49.6425 140.434 49.5781C140.568 49.5575 140.791 49.4976 141.102 49.3983C141.432 49.3133 141.6 49.2875 141.605 49.3211C141.773 49.2954 141.912 49.2483 142.021 49.18C142.145 49.0923 142.284 49.0452 142.438 49.0388C142.423 49.0582 142.409 49.0775 142.395 49.0969C142.414 49.1111 142.424 49.1182 142.424 49.1182C142.463 49.1466 142.547 49.1337 142.676 49.0796C142.819 49.0061 142.893 48.9861 142.898 49.0196L143.711 48.9464C143.725 48.927 143.802 48.9238 143.941 48.9368C144.047 48.9549 144.11 48.971 144.129 48.9852C144.148 48.9994 144.239 48.9769 144.402 48.9176L144.712 48.9216C144.759 48.8971 144.772 48.921 144.748 48.9932C144.759 49.0603 144.781 49.0913 144.814 49.0861L145.05 48.9469C145.132 48.9172 145.225 48.9115 145.331 48.9296C145.47 48.9425 145.61 48.9555 145.749 48.9684C146.152 48.9066 146.411 48.9183 146.527 49.0035L146.643 49.0887C146.966 49.1766 147.233 49.2986 147.446 49.4548C147.756 49.682 147.912 49.9756 147.916 50.3356C147.912 50.422 147.873 50.5568 147.798 50.74C147.822 50.7878 147.811 50.8239 147.763 50.8484C147.749 50.8677 147.737 50.9039 147.728 50.9567C147.719 51.0096 147.722 51.0864 147.738 51.1871C147.767 51.2684 147.761 51.338 147.718 51.3961L147.676 51.4541C147.619 51.5315 147.521 51.5637 147.381 51.5508C147.421 51.6992 147.425 51.7759 147.391 51.7811C147.391 51.7811 147.36 51.803 147.298 51.8469L146.942 52.2106C146.823 52.3318 146.716 52.4169 146.621 52.4659C146.539 52.4956 146.422 52.5736 146.27 52.7C146.262 52.8729 146.206 52.9503 146.1 52.9322L146.042 52.8896L145.928 52.9844C145.899 53.0231 145.89 53.076 145.9 53.1431L145.685 53.2533C145.719 53.2482 145.729 53.2553 145.715 53.2746C145.734 53.2888 145.744 53.2959 145.744 53.2959C145.696 53.3204 145.61 53.3765 145.486 53.4642C145.376 53.5325 145.291 53.5886 145.229 53.6325C145.138 53.715 145.064 53.735 145.006 53.6924C144.948 53.6498 144.893 53.684 144.841 53.7949C144.847 53.8285 144.807 53.9033 144.721 54.0194C144.67 54.1303 144.625 54.1716 144.586 54.1432L144.272 54.4489L144.208 54.5359C144.137 54.6327 144.047 54.7152 143.937 54.7836C143.847 54.8661 143.757 54.9486 143.666 55.0312C143.576 55.1137 143.478 55.2059 143.374 55.3078C143.303 55.4046 143.232 55.5013 143.161 55.5981C143.104 55.6755 143.04 55.7625 142.969 55.8593C142.932 55.9509 142.894 56.0425 142.857 56.1341C142.843 56.1534 142.829 56.2328 142.816 56.3721C142.803 56.5114 142.79 56.5908 142.775 56.6101L142.799 56.7611C142.823 56.8088 142.881 56.8514 142.973 56.8889C143.084 56.9405 143.144 56.9999 143.155 57.067C143.315 57.2142 143.601 57.2904 144.014 57.2957C144.46 57.2959 144.892 57.2554 145.309 57.1742C145.409 57.1588 145.489 57.1724 145.547 57.215C145.585 57.2434 145.593 57.2937 145.57 57.3659C145.547 57.4382 145.47 57.5014 145.341 57.5555C144.705 57.7733 144.188 57.8699 143.789 57.8453C143.405 57.8013 143.096 57.6941 142.864 57.5237Z" fill="#4B93FF"/>
<path d="M145.985 60.3312C145.766 60.1093 145.717 59.8035 145.838 59.4139C145.993 59.0245 146.173 58.7965 146.377 58.7298C146.445 58.7302 146.513 58.7136 146.581 58.6801C146.683 58.6467 146.751 58.6302 146.785 58.6304C146.853 58.6308 146.878 58.6394 146.861 58.6563C146.878 58.6734 146.903 58.682 146.937 58.6822C146.988 58.6655 147.014 58.6402 147.014 58.6063C147.031 58.5555 147.057 58.5302 147.091 58.5304C147.312 58.4129 147.559 58.2871 147.831 58.1529C148.12 58.0359 148.393 57.9187 148.648 57.8014C148.665 57.7845 148.69 57.7762 148.724 57.7764C148.758 57.7766 148.784 57.7683 148.801 57.7514C148.92 57.7012 149.014 57.6423 149.082 57.5749C149.184 57.5076 149.278 57.4487 149.363 57.3983C149.38 57.3815 149.397 57.3985 149.414 57.4496C149.447 57.4837 149.481 57.5009 149.515 57.5011C149.634 57.4509 149.668 57.4002 149.618 57.3489C149.567 57.2977 149.551 57.2637 149.568 57.2468L150.615 56.6675C150.649 56.6677 150.734 56.6173 150.87 56.5163C151.023 56.4324 151.143 56.3652 151.228 56.3148L151.125 56.416C151.057 56.4835 150.989 56.5679 150.92 56.6694C150.886 56.771 150.919 56.8391 151.021 56.8736C151.106 56.8911 151.14 56.8743 151.123 56.8233C151.14 56.7725 151.166 56.7132 151.2 56.6456C151.218 56.5948 151.26 56.5526 151.328 56.519C151.43 56.4857 151.481 56.469 151.481 56.469C151.549 56.4694 151.549 56.5373 151.48 56.6727C151.428 56.8251 151.419 56.9014 151.453 56.9016C151.488 56.8679 151.539 56.8173 151.607 56.7498C151.692 56.6994 151.726 56.6487 151.71 56.5977C151.71 56.4959 151.677 56.3769 151.61 56.2407C151.56 56.1216 151.56 56.0537 151.611 56.0371C151.662 55.9865 151.731 55.9359 151.816 55.8855C151.918 55.8861 151.986 55.8696 152.02 55.8358C152.054 55.8021 152.054 55.7682 152.02 55.734C152.003 55.7169 152.004 55.7 152.021 55.6831C152.106 55.5988 152.183 55.5228 152.251 55.4554C152.353 55.3881 152.447 55.3123 152.533 55.2279C152.72 55.0424 152.823 54.8224 152.842 54.5679C152.894 54.3137 152.819 54.0841 152.617 53.8792C152.431 53.6915 152.381 53.5554 152.467 53.4711C152.552 53.3867 152.739 53.3878 153.027 53.4744C153.349 53.5611 153.636 53.7326 153.889 53.9886C154.294 54.3983 154.368 54.8655 154.11 55.39C153.869 55.9317 153.442 56.4552 152.828 56.9607C152.794 56.9945 152.726 56.994 152.624 56.9595C152.556 56.9252 152.505 56.9249 152.471 56.9586C152.437 56.9923 152.437 57.0263 152.471 57.0604C152.538 57.0948 152.564 57.1373 152.546 57.1881C152.512 57.2219 152.435 57.2808 152.316 57.365C152.197 57.4491 152.112 57.4995 152.061 57.5162C151.532 57.8694 150.979 58.1971 150.4 58.4991C149.821 58.8012 149.251 59.0439 148.69 59.2272C148.64 59.176 148.58 59.1672 148.512 59.2007C148.444 59.2342 148.393 59.2339 148.36 59.1998C148.309 59.1486 148.275 59.0805 148.259 58.9955C148.276 58.9108 148.26 58.8937 148.208 58.9443L148.183 58.9696C148.114 59.0371 148.097 59.1049 148.131 59.173C148.181 59.2581 148.206 59.3177 148.206 59.3516C148.223 59.4026 148.248 59.4452 148.281 59.4793C148.315 59.5135 148.358 59.5222 148.409 59.5055C148.477 59.5059 148.536 59.5148 148.587 59.5321C148.756 59.567 148.977 59.5683 149.248 59.536C149.537 59.5207 149.792 59.4883 150.013 59.4387C150.251 59.4062 150.369 59.3899 150.369 59.3899C150.37 59.322 150.429 59.3139 150.548 59.3655L150.599 59.3658L150.854 59.3164C150.956 59.2491 151.117 59.1907 151.338 59.1411C151.559 59.0915 151.712 59.0924 151.796 59.1438L151.924 59.1191L151.924 59.0682C151.924 59.0682 151.924 59.0852 151.924 59.1191C151.958 59.1533 152 59.179 152.051 59.1963C152.068 59.1794 152.085 59.1455 152.102 59.0947C152.136 59.061 152.162 59.0527 152.179 59.0697L152.51 58.9953C152.646 58.9283 152.748 58.8949 152.816 58.8953C152.851 58.8276 152.902 58.811 152.969 58.8453C153.02 58.8626 153.054 58.8967 153.07 58.9477C153.121 58.999 153.18 58.9908 153.249 58.9233L153.3 58.8727C153.334 58.839 153.385 58.8054 153.453 58.7718C153.521 58.7383 153.564 58.7301 153.581 58.7471L153.631 58.7983L153.733 58.7989C153.75 58.7481 153.759 58.7397 153.759 58.7736C153.793 58.8078 153.835 58.8165 153.886 58.7999L154.166 58.7761L154.497 58.7017C154.515 58.6848 154.608 58.6769 154.778 58.6779C154.964 58.662 155.143 58.6546 155.312 58.6556C155.516 58.6568 155.618 58.6574 155.618 58.6574C155.855 58.6588 156.059 58.6431 156.229 58.6101C156.416 58.5603 156.62 58.5276 156.841 58.5119L156.917 58.5378L156.993 58.5128L157.605 58.4146C157.928 58.3657 158.157 58.3076 158.293 58.2405C158.429 58.1735 158.548 58.2421 158.648 58.4463C158.665 58.4973 158.715 58.6164 158.799 58.8036C158.9 58.9739 158.975 59.1016 159.026 59.1868L159.152 59.3148C159.254 59.4172 159.346 59.5111 159.431 59.5965C159.549 59.682 159.642 59.759 159.709 59.8272C159.777 59.8955 159.861 59.9639 159.963 60.0324C160.081 60.084 160.132 60.1352 160.114 60.186C160.114 60.22 160.097 60.2538 160.063 60.2876C160.012 60.3382 159.952 60.3633 159.884 60.3629C159.816 60.3625 159.749 60.3621 159.681 60.3617C159.426 60.3771 159.112 60.3328 158.74 60.2288C158.384 60.1418 158.121 60.0978 157.951 60.0968C157.883 60.0964 157.833 60.0282 157.8 59.8923C157.767 59.7563 157.682 59.7049 157.546 59.738C157.478 59.7716 157.419 59.7627 157.368 59.7115C157.317 59.6603 157.259 59.5327 157.192 59.3286C157.057 59.2599 156.921 59.2082 156.786 59.1735C156.65 59.1387 156.472 59.1122 156.252 59.0939C155.386 59.0718 154.359 59.176 153.17 59.4065C152.014 59.6373 150.859 59.8341 149.704 59.9969C149.381 60.0459 149.16 60.0785 149.042 60.0948C148.957 60.1113 148.829 60.136 148.659 60.1689C148.625 60.1687 148.6 60.1431 148.583 60.0921C148.567 60.0411 148.524 60.0154 148.457 60.015C148.457 60.015 148.431 60.0403 148.38 60.0909C148.346 60.1246 148.312 60.1414 148.278 60.1412C148.26 60.158 148.227 60.1578 148.176 60.1406C148.142 60.1404 148.099 60.1486 148.048 60.1653C148.014 60.1651 148.014 60.182 148.048 60.2162C148.099 60.2674 148.107 60.2929 148.073 60.2927C147.988 60.3431 147.835 60.3761 147.614 60.3918C147.41 60.4245 147.24 60.4575 147.104 60.4906C146.816 60.5398 146.57 60.5468 146.366 60.5117C146.197 60.4767 146.07 60.4166 145.985 60.3312Z" fill="#4B93FF"/>
<path d="M163.757 63.336C163.712 63.2798 163.686 63.2085 163.678 63.1223C163.686 63.0549 163.688 62.9612 163.684 62.8412C163.673 62.7887 163.654 62.7269 163.628 62.6556C163.635 62.5882 163.677 62.5245 163.752 62.4646C163.755 62.4308 163.735 62.3858 163.69 62.3296C163.615 62.2358 163.643 62.1365 163.774 62.0317C163.924 61.9118 164.087 61.9044 164.264 62.0094L164.488 62.0601L164.46 62.0826L164.691 62.0827L164.736 62.139C164.826 62.2515 164.942 62.2815 165.084 62.2291C165.242 62.1955 165.407 62.248 165.579 62.3868C165.706 62.4693 165.772 62.5706 165.776 62.6905C165.779 62.8105 165.826 62.9267 165.916 63.0392C166.006 63.1517 166.141 63.2436 166.321 63.3149L166.742 63.6693C166.787 63.7256 166.791 63.7687 166.753 63.7986C166.716 63.8286 166.624 63.8098 166.478 63.7423C166.347 63.6935 166.247 63.6653 166.18 63.6578L166.129 63.6521L166.051 63.6689L165.82 63.6688C165.599 63.6612 165.335 63.6573 165.027 63.6572C164.754 63.6608 164.501 63.6325 164.268 63.5724C164.002 63.5086 163.832 63.4298 163.757 63.336ZM151.482 66.1406C151.392 66.0281 151.413 65.9194 151.544 65.8146C151.638 65.7396 151.773 65.6779 151.949 65.6292C152.388 65.5245 152.972 65.3337 153.703 65.0567C154.449 64.7985 155.149 64.6545 155.801 64.6249C156.378 64.5015 156.931 64.3669 157.459 64.221C158.022 64.0788 158.577 63.9273 159.124 63.7665C159.124 63.7665 159.118 63.7402 159.107 63.6877C159.13 63.639 159.16 63.5997 159.197 63.5697C159.182 63.3973 159.188 63.193 159.214 62.9569C159.274 62.7245 159.417 62.5953 159.642 62.5692C159.709 62.5767 159.75 62.5899 159.765 62.6086C159.78 62.6274 159.788 62.6367 159.788 62.6367C159.807 62.6218 159.809 62.6049 159.794 62.5861C159.812 62.5712 159.822 62.5637 159.822 62.5637C159.897 62.5037 159.974 62.5038 160.052 62.5638C160.131 62.6238 160.189 62.6388 160.227 62.6089C160.519 62.4366 160.896 62.5043 161.356 62.8119C161.817 63.1195 162.175 63.4326 162.43 63.7514C162.685 64.0701 162.765 64.2669 162.671 64.3418C162.634 64.3718 162.523 64.368 162.34 64.3304C162.257 64.3041 162.098 64.2778 161.862 64.2514C161.626 64.2251 161.369 64.2306 161.091 64.2679L160.574 64.3126C160.522 64.3238 160.452 64.3331 160.366 64.3406C160.314 64.3518 160.254 64.3536 160.186 64.3461C159.403 64.4806 158.749 64.604 158.224 64.7161C157.699 64.8283 157.041 64.9854 156.25 65.1874C156.108 65.2398 156.018 65.2809 155.98 65.3109C155.849 65.4158 155.843 65.5432 155.963 65.6932C156.053 65.8057 156.171 65.8957 156.317 65.9633L156.654 66.1546C157.427 66.275 158.148 66.4665 158.819 66.7292C158.834 66.748 158.841 66.7573 158.841 66.7573C158.875 66.7611 158.899 66.7724 158.914 66.7911C158.959 66.8474 158.952 66.9148 158.892 66.9935C158.85 67.0572 158.789 67.0759 158.706 67.0496C157.972 66.7456 157.183 66.5466 156.339 66.4524C156.287 66.4636 156.235 66.4748 156.182 66.4861C156.13 66.4973 156.07 66.4991 156.002 66.4916C155.935 66.4841 155.824 66.4803 155.67 66.4802C155.532 66.4988 155.453 66.5157 155.434 66.5306C155.363 66.5568 155.322 66.5437 155.311 66.4912C155.314 66.4575 155.241 66.4237 155.091 66.3899C155.058 66.3861 155.005 66.3974 154.934 66.4236C154.878 66.4685 154.823 66.4966 154.771 66.5078C154.7 66.534 154.623 66.534 154.54 66.5077C154.492 66.4852 154.458 66.4814 154.439 66.4964C154.349 66.5376 154.272 66.5375 154.209 66.4963C154.179 66.4588 154.13 66.4362 154.062 66.4287C154.029 66.4249 154.001 66.4474 153.978 66.4961C153.956 66.5449 153.911 66.5654 153.843 66.5579C153.772 66.5841 153.729 66.5878 153.714 66.5691C153.718 66.5354 153.686 66.5147 153.618 66.5072C153.483 66.4921 153.401 66.4658 153.371 66.4283C153.244 66.3458 153.178 66.3214 153.174 66.3552C153.185 66.4076 153.189 66.4507 153.185 66.4845C153.215 66.522 153.165 66.5163 153.034 66.4675C152.985 66.445 152.899 66.4525 152.775 66.4899C152.67 66.5123 152.584 66.5198 152.516 66.5122C152.434 66.4859 152.361 66.4522 152.297 66.4109C152.248 66.3884 152.173 66.3715 152.072 66.3602C151.769 66.3263 151.572 66.2531 151.482 66.1406Z" fill="#4B93FF"/>
<path d="M155.869 71.8706C155.79 71.7497 155.822 71.6436 155.963 71.5523C156.064 71.4871 156.204 71.4391 156.384 71.4083C156.831 71.3479 157.432 71.2164 158.187 71.0137C158.955 70.8312 159.665 70.7577 160.317 70.7933L164.408 70.2904C164.33 70.1695 164.221 70.0681 164.083 69.9863C163.957 69.9247 163.874 69.9069 163.834 69.933C163.753 69.9851 163.601 69.9264 163.377 69.7569C163.153 69.5874 163.024 69.4991 162.991 69.492C162.715 69.2419 162.442 69.0185 162.171 68.8217C161.819 68.7636 161.467 68.7055 161.115 68.6474C160.776 68.6095 160.444 68.5816 160.118 68.5638C160.085 68.5567 160.062 68.5431 160.049 68.5229C159.73 68.4719 159.481 68.4186 159.302 68.3629C159.123 68.3072 158.947 68.2349 158.776 68.146C158.663 68.1045 158.591 68.0369 158.559 67.9433C158.534 67.8164 158.568 67.7803 158.66 67.8348C158.766 67.9095 159.011 67.9794 159.396 68.0446C159.781 68.1098 160.073 68.1638 160.273 68.2065C160.398 68.2681 160.418 68.2983 160.331 68.2971C160.258 68.3161 160.287 68.3398 160.42 68.3683L161.876 68.4981L161.926 68.5088C161.921 68.3689 162.05 68.2142 162.312 68.0448C162.513 67.9144 162.701 67.8504 162.874 67.8528C162.894 67.8397 162.917 67.8534 162.943 67.8937L163.535 68.4111C163.574 68.4715 163.61 68.5053 163.644 68.5124C163.71 68.5266 163.786 68.5343 163.873 68.5355C163.993 68.5438 164.139 68.5492 164.312 68.5516L165.03 68.6014L165.519 68.6281C165.58 68.5889 165.676 68.5836 165.809 68.6121C165.975 68.6476 166.098 68.6826 166.177 68.717C166.35 68.7194 166.473 68.7111 166.547 68.6921C166.654 68.6803 166.793 68.6755 166.966 68.6779C166.987 68.6649 167.016 68.6886 167.055 68.749C167.115 68.7964 167.154 68.8136 167.174 68.8006C167.389 68.6904 167.499 68.6619 167.505 68.7153C167.544 68.7757 167.594 68.7864 167.654 68.7473C167.715 68.7082 167.791 68.7159 167.884 68.7704L168.163 68.8042C168.183 68.7911 168.243 68.7953 168.343 68.8166L168.373 68.7971C168.413 68.771 168.463 68.7384 168.524 68.6993C168.584 68.6602 168.658 68.6412 168.744 68.6424C168.811 68.6566 168.85 68.6738 168.863 68.694C168.876 68.7141 168.883 68.7242 168.883 68.7242C168.903 68.7112 168.907 68.6946 168.894 68.6744C168.914 68.6614 168.924 68.6549 168.924 68.6549C169.005 68.6027 169.081 68.6104 169.153 68.678C169.226 68.7456 169.282 68.7663 169.322 68.7402C169.63 68.598 169.998 68.7029 170.426 69.055C170.854 69.407 171.179 69.7543 171.4 70.0969C171.622 70.4394 171.683 70.6433 171.582 70.7085C171.541 70.7345 171.432 70.7197 171.253 70.664C171.194 70.6166 171.038 70.5745 170.785 70.5378C170.553 70.488 170.297 70.4678 170.017 70.4773L169.498 70.4701C169.445 70.4761 169.375 70.4784 169.288 70.4772C169.235 70.4832 169.175 70.479 169.109 70.4648C168.776 70.4802 168.309 70.5104 167.71 70.5554C167.143 70.6075 166.513 70.6721 165.82 70.7491L166.419 71.4763C166.458 71.5368 166.461 71.5634 166.428 71.5563C166.407 71.5694 166.427 71.5996 166.486 71.647C166.551 71.7477 166.607 71.8118 166.653 71.839C166.72 71.8532 166.796 71.9042 166.881 71.9919C167.005 72.1401 167.133 72.3149 167.263 72.5164C167.427 72.725 167.548 72.8898 167.626 73.0107C167.678 73.0913 167.743 73.1921 167.821 73.313C167.9 73.4339 167.948 73.5311 167.967 73.6045C167.993 73.6448 167.98 73.668 167.926 73.6739C167.906 73.6869 167.903 73.7035 167.916 73.7237C167.942 73.764 167.971 73.7877 168.005 73.7948C168.051 73.822 168.087 73.8558 168.113 73.8961C168.146 73.9032 168.166 73.9335 168.172 73.9868C168.211 74.0473 168.237 74.0876 168.25 74.1077L168.355 74.4686C168.413 74.6026 168.381 74.7086 168.26 74.7869C168.153 74.8852 168.08 74.8609 168.042 74.714C168.03 74.6073 168.004 74.5237 167.965 74.4633L167.476 73.7076C167.385 73.5666 167.3 73.4356 167.222 73.3147C167.144 73.1938 167.056 73.0794 166.957 72.9716C166.911 72.9443 166.918 72.9111 166.979 72.872C167.052 72.853 167.076 72.8234 167.05 72.7831C167.037 72.763 166.987 72.7523 166.9 72.7511C166.834 72.7369 166.794 72.7197 166.781 72.6995L166.593 72.6071C166.304 72.3368 165.991 72.0529 165.656 71.7554C165.341 71.4449 165.022 71.1509 164.699 70.8735C163.879 70.9754 163.096 71.0678 162.349 71.1508C161.636 71.2408 161.082 71.3131 160.688 71.3676C160.542 71.4055 160.458 71.431 160.438 71.4441C160.277 71.5484 160.255 71.6912 160.372 71.8725C160.45 71.9934 160.559 72.0948 160.697 72.1766L161.014 72.4006C161.77 72.5974 162.469 72.86 163.11 73.1883C163.123 73.2085 163.129 73.2185 163.129 73.2185C163.163 73.2256 163.186 73.2393 163.199 73.2594C163.238 73.3199 163.224 73.3862 163.156 73.4585C163.109 73.5178 163.045 73.5303 162.966 73.4959C162.265 73.1201 161.5 72.8433 160.671 72.6655C160.617 72.6714 160.564 72.6773 160.511 72.6833C160.457 72.6892 160.397 72.685 160.331 72.6708C160.265 72.6566 160.155 72.6418 160.002 72.6264C159.862 72.6311 159.782 72.64 159.762 72.653C159.689 72.672 159.649 72.6548 159.643 72.6014C159.65 72.5683 159.581 72.5274 159.435 72.4788C159.402 72.4716 159.348 72.4776 159.275 72.4965C159.215 72.5356 159.158 72.5582 159.104 72.5641C159.018 72.5629 158.941 72.5552 158.875 72.541C158.829 72.5137 158.796 72.5066 158.775 72.5196C158.682 72.5516 158.605 72.5439 158.546 72.4965C158.52 72.4562 158.474 72.4289 158.407 72.4147C158.394 72.3946 158.378 72.391 158.358 72.404C158.176 72.5214 158.083 72.5534 158.077 72.5C158.071 72.4467 158.031 72.4295 157.958 72.4485C157.825 72.42 157.745 72.3856 157.719 72.3453C157.601 72.2505 157.538 72.2197 157.531 72.2529C157.537 72.3062 157.536 72.3495 157.529 72.3827C157.555 72.423 157.505 72.4123 157.38 72.3507C157.334 72.3234 157.247 72.3222 157.12 72.3471C157.014 72.3589 156.927 72.3578 156.861 72.3435C156.781 72.3092 156.712 72.2683 156.653 72.2208C156.593 72.1734 156.52 72.1491 156.434 72.1479C156.135 72.0839 155.947 71.9915 155.869 71.8706ZM164.086 68.9978C164.158 69.0654 164.224 69.1229 164.284 69.1703C164.356 69.2378 164.438 69.2989 164.531 69.3534L165.268 70.1624C165.908 70.0913 166.479 70.0226 166.979 69.9562C167.499 69.8768 167.876 69.8188 168.11 69.782C168.11 69.782 168.107 69.7554 168.101 69.702C168.128 69.6558 168.162 69.6197 168.202 69.5936C168.196 69.5402 168.194 69.4703 168.195 69.3838C168.209 69.3174 168.213 69.2576 168.207 69.2042L167.759 69.1082L167.091 69.069C167.071 69.0821 167.031 69.0649 166.972 69.0175C166.946 68.9772 166.923 68.9636 166.902 68.9766C166.842 69.0157 166.762 69.0246 166.662 69.0032C166.576 69.0021 166.53 68.9748 166.524 68.9215L166.143 68.9961C166.083 69.0352 166.013 69.0376 165.933 69.0032L165.525 68.9676C165.504 68.9807 165.478 68.9836 165.445 68.9765C165.445 68.9765 165.424 68.9896 165.384 69.0156C165.331 69.0216 165.261 69.0239 165.174 69.0227C165.088 69.0216 164.995 69.0103 164.895 68.9889C164.882 68.9688 164.866 68.9652 164.845 68.9783C164.845 68.9783 164.839 68.9682 164.826 68.9481L164.586 68.9747C164.493 68.9202 164.441 68.8828 164.428 68.8627L164.348 68.8716C164.227 68.9498 164.14 68.9919 164.086 68.9978Z" fill="#4B93FF"/>
<path d="M160.5 79.414C160.232 78.8775 160.146 78.3301 160.242 77.772C160.338 77.2138 160.751 76.7521 161.481 76.3869C161.76 76.2472 162.055 76.1397 162.366 76.0645C162.699 75.9785 163.026 75.9085 163.348 75.8547C163.649 75.758 163.928 75.6988 164.185 75.6773C164.282 75.6558 164.33 75.645 164.33 75.645C164.363 75.6557 164.422 75.6933 164.507 75.7576L165.023 75.8218L165.151 75.7573C165.141 75.7359 165.135 75.7251 165.135 75.7251C165.157 75.7144 165.168 75.709 165.168 75.709C165.232 75.6768 165.334 75.6929 165.473 75.7572C165.613 75.8215 165.683 75.8537 165.683 75.8537C165.801 75.8215 165.871 75.8268 165.892 75.8697C165.914 75.9126 165.973 75.9502 166.069 75.9823L166.246 76.3364L166.311 76.3042C166.418 76.2505 166.434 76.1754 166.359 76.0788C166.316 75.993 166.305 75.9447 166.327 75.9339C166.348 75.9232 166.407 75.9339 166.504 75.966C166.633 76.0089 166.713 76.0357 166.745 76.0464C166.864 76.0678 166.965 76.0839 167.051 76.0946C167.159 76.0945 167.255 76.1267 167.341 76.1911C168.007 76.341 168.425 76.4267 168.597 76.4481C168.78 76.491 168.93 76.5499 169.048 76.625C169.069 76.6679 169.064 76.7109 169.032 76.7538C169.032 76.8075 169 76.8236 168.935 76.8021C168.892 76.8773 168.898 76.9149 168.951 76.9148C169.016 76.9363 169.048 76.947 169.048 76.947L169.177 77.0435C169.198 76.9791 169.241 76.9308 169.306 76.8986C169.413 76.8449 169.51 76.8234 169.595 76.8341C169.703 76.834 169.826 76.8662 169.966 76.9305C170.116 77.0163 170.202 77.0538 170.223 77.0431C170.331 77.1504 170.422 77.2254 170.497 77.2683C170.583 77.3327 170.648 77.4078 170.691 77.4937C170.766 77.6439 170.787 77.821 170.755 78.0249C170.745 78.5401 170.702 78.9909 170.627 79.3773C170.552 79.7638 170.321 80.0537 169.935 80.247C169.527 80.4511 169.087 80.4567 168.615 80.2637C168.175 80.0815 167.74 79.8026 167.31 79.4271C166.881 79.0516 166.484 78.6601 166.119 78.2524C165.786 77.8554 165.523 77.5442 165.329 77.3189C165.233 77.1794 165.131 77.1366 165.023 77.1903C164.948 77.2547 164.846 77.2923 164.717 77.3031L164.251 77.255L163.703 77.2875L163.333 77.2715C163.129 77.1857 163.005 77.1804 162.963 77.2556C162.92 77.3307 162.968 77.4005 163.108 77.4648C163.097 77.497 163.07 77.5239 163.027 77.5453C162.941 77.5883 162.823 77.6206 162.673 77.6421C162.544 77.6529 162.442 77.6637 162.367 77.6744C162.27 77.6959 162.228 77.7174 162.238 77.7389C162.281 77.7711 162.249 77.814 162.142 77.8677L161.707 78.1255C161.364 78.4584 161.273 78.8663 161.434 79.3492C161.456 79.3921 161.466 79.4404 161.466 79.4941C161.499 79.5585 161.525 79.6121 161.547 79.6551C161.74 80.0414 161.874 80.2291 161.95 80.2184C162.035 80.2291 162.105 80.2612 162.159 80.3149C162.299 80.4865 162.422 80.626 162.529 80.7333C162.648 80.8621 162.787 80.9801 162.948 81.0873C163.184 81.2911 163.447 81.4681 163.737 81.6183C164.027 81.7684 164.322 81.9293 164.623 82.1009L165.009 82.31C165.063 82.31 165.095 82.2938 165.106 82.2616C165.117 82.2294 165.138 82.2187 165.17 82.2294C165.213 82.2616 165.229 82.2938 165.219 82.326C165.24 82.3689 165.267 82.3957 165.299 82.4064C165.342 82.4386 165.396 82.4654 165.46 82.4869C165.546 82.4976 165.621 82.5136 165.686 82.5351C165.75 82.5565 165.804 82.5565 165.847 82.535C165.9 82.535 165.959 82.5457 166.024 82.5671C166.281 82.6529 166.55 82.7333 166.829 82.8083C167.119 82.9047 167.371 82.9798 167.586 83.0333C167.876 83.0761 168.042 83.1405 168.085 83.2263C168.106 83.2692 168.096 83.3014 168.053 83.3229C167.945 83.3766 167.747 83.3821 167.457 83.3393C166.738 83.243 166.003 83.0877 165.251 82.8734C164.521 82.6483 163.813 82.3588 163.126 82.0049C162.643 81.7368 162.154 81.3775 161.66 80.9269C161.166 80.4763 160.78 79.972 160.5 79.414ZM165.925 77.3026C166.108 77.6138 166.403 77.9893 166.811 78.4292C167.24 78.8583 167.681 79.1747 168.132 79.3785C168.615 79.5929 169.039 79.6088 169.403 79.4262C169.747 79.2543 169.988 78.9054 170.127 78.3794C169.762 78.1864 169.285 78.0095 168.694 77.8487C168.136 77.6987 167.594 77.5809 167.068 77.4953C166.564 77.3989 166.183 77.3347 165.925 77.3026Z" fill="#4B93FF"/>
</svg>
