<svg width="170" height="143" viewBox="0 0 170 143" fill="none" xmlns="http://www.w3.org/2000/svg">
<g filter="url(#filter0_dddd_104_66)">
<path d="M14 4H14.2451C13.9298 4.49748 13.6678 5.02741 13.4688 5.58301L13.3447 5.95703C13.2585 6.24107 13.194 6.53239 13.1455 6.84863C13.0727 7.32321 13.0368 7.85403 13.0186 8.50098L13.0049 9.18945C13.0038 9.28847 13.0046 9.38999 13.0039 9.49414C13.0041 9.4676 13.0047 9.44124 13.0049 9.41504C13.0016 9.84441 13 10.3194 13 10.8506V87.2002C13 91.6805 13.0002 93.9206 13.8721 95.6318C14.6391 97.1371 15.8629 98.3609 17.3682 99.1279C19.0795 99.9999 21.3196 100 25.7998 100H144.2C148.681 100 150.921 99.9999 152.632 99.1279C154.137 98.3609 155.361 97.1371 156.128 95.6318C157 93.9206 157 91.6805 157 87.2002V10.8506C157 10.3518 156.998 9.90256 156.995 9.49414C156.993 9.13342 156.99 8.80442 156.981 8.50098C156.969 8.06991 156.95 7.69038 156.916 7.34473L156.855 6.84863L156.815 6.61621C156.787 6.46367 156.754 6.31635 156.716 6.17188C156.697 6.09965 156.677 6.02808 156.655 5.95703C156.445 5.26537 156.14 4.60801 155.755 4H156.914C157.201 4.52962 157.436 5.08706 157.611 5.66602L157.682 5.91406C158.009 7.16134 158 8.56105 158 10.8506V87.2002C158 89.4238 158.001 91.152 157.888 92.5361C157.788 93.7572 157.596 94.7779 157.201 95.6973L157.02 96.0859C156.211 97.6737 154.949 98.9831 153.399 99.8516L153.086 100.02C152.066 100.539 150.932 100.774 149.536 100.888C148.498 100.973 147.266 100.993 145.777 100.998L144.2 101H25.7998C23.5762 101 21.848 101.001 20.4639 100.888C19.0683 100.774 17.9341 100.539 16.9141 100.02C15.2206 99.1567 13.8433 97.7794 12.9805 96.0859C12.4608 95.0659 12.2264 93.9318 12.1123 92.5361C11.9992 91.152 12 89.4238 12 87.2002V10.8506C12 8.40829 11.9902 6.97835 12.3887 5.66602L12.5274 5.24512C12.8673 4.29645 13.3656 3.41124 14 2.62598V4Z" fill="url(#paint0_linear_104_66)"/>
<path d="M154.535 4C155.055 4.67229 155.451 5.43271 155.698 6.24707C155.99 7.20815 156 8.28375 156 10.8506V87.2002C156 89.4568 155.999 91.0892 155.895 92.373C155.791 93.645 155.589 94.4866 155.237 95.1777C154.566 96.4949 153.495 97.5662 152.178 98.2373C151.487 98.5894 150.645 98.7906 149.373 98.8945C148.089 98.9994 146.457 99 144.2 99H25.7998C23.5432 99 21.9108 98.9994 20.627 98.8945C19.355 98.7906 18.5134 98.5894 17.8223 98.2373C16.5052 97.5662 15.4338 96.4949 14.7627 95.1777C14.4106 94.4866 14.2094 93.645 14.1055 92.373C14.0006 91.0892 14 89.4568 14 87.2002V10.8506C14 8.28375 14.0099 7.20815 14.3018 6.24707C14.5491 5.43271 14.9448 4.67229 15.4649 4H154.535Z" fill="url(#paint1_linear_104_66)"/>
</g>
<defs>
<filter id="filter0_dddd_104_66" x="0" y="0.625977" width="170" height="142.374" filterUnits="userSpaceOnUse" color-interpolation-filters="sRGB">
<feFlood flood-opacity="0" result="BackgroundImageFix"/>
<feColorMatrix in="SourceAlpha" type="matrix" values="0 0 0 0 0 0 0 0 0 0 0 0 0 0 0 0 0 0 127 0" result="hardAlpha"/>
<feOffset dy="2"/>
<feGaussianBlur stdDeviation="2"/>
<feColorMatrix type="matrix" values="0 0 0 0 0.117647 0 0 0 0 0.160784 0 0 0 0 0.231373 0 0 0 0.08 0"/>
<feBlend mode="normal" in2="BackgroundImageFix" result="effect1_dropShadow_104_66"/>
<feColorMatrix in="SourceAlpha" type="matrix" values="0 0 0 0 0 0 0 0 0 0 0 0 0 0 0 0 0 0 127 0" result="hardAlpha"/>
<feOffset dy="8"/>
<feGaussianBlur stdDeviation="4"/>
<feColorMatrix type="matrix" values="0 0 0 0 0.117647 0 0 0 0 0.160784 0 0 0 0 0.231373 0 0 0 0.07 0"/>
<feBlend mode="normal" in2="effect1_dropShadow_104_66" result="effect2_dropShadow_104_66"/>
<feColorMatrix in="SourceAlpha" type="matrix" values="0 0 0 0 0 0 0 0 0 0 0 0 0 0 0 0 0 0 127 0" result="hardAlpha"/>
<feOffset dy="17"/>
<feGaussianBlur stdDeviation="5"/>
<feColorMatrix type="matrix" values="0 0 0 0 0.117647 0 0 0 0 0.160784 0 0 0 0 0.231373 0 0 0 0.04 0"/>
<feBlend mode="normal" in2="effect2_dropShadow_104_66" result="effect3_dropShadow_104_66"/>
<feColorMatrix in="SourceAlpha" type="matrix" values="0 0 0 0 0 0 0 0 0 0 0 0 0 0 0 0 0 0 127 0" result="hardAlpha"/>
<feOffset dy="30"/>
<feGaussianBlur stdDeviation="6"/>
<feColorMatrix type="matrix" values="0 0 0 0 0.117647 0 0 0 0 0.160784 0 0 0 0 0.231373 0 0 0 0.01 0"/>
<feBlend mode="normal" in2="effect3_dropShadow_104_66" result="effect4_dropShadow_104_66"/>
<feBlend mode="normal" in="SourceGraphic" in2="effect4_dropShadow_104_66" result="shape"/>
</filter>
<linearGradient id="paint0_linear_104_66" x1="85" y1="-20" x2="85" y2="100" gradientUnits="userSpaceOnUse">
<stop stop-color="#E6E8EA"/>
<stop offset="1" stop-color="#DDE0E3"/>
</linearGradient>
<linearGradient id="paint1_linear_104_66" x1="85" y1="-20" x2="85" y2="100" gradientUnits="userSpaceOnUse">
<stop stop-color="#E6E8EA"/>
<stop offset="1" stop-color="#DDE0E3"/>
</linearGradient>
</defs>
</svg>
