<svg width="186" height="119" viewBox="0 0 186 119" fill="none" xmlns="http://www.w3.org/2000/svg">
<g style="mix-blend-mode:multiply" opacity="0.7">
<g filter="url(#filter0_f_104_84)">
<path d="M24 24L162 24L101.555 78.3128C98.5309 81.0302 97.0187 82.389 95.3091 82.9044C93.8032 83.3584 92.1968 83.3584 90.6909 82.9044C88.9813 82.389 87.4691 81.0302 84.4449 78.3128L24 24Z" fill="#334155" fill-opacity="0.4"/>
</g>
<g filter="url(#filter1_f_104_84)">
<path d="M32 24L154 24L102.528 81.3785C99.2296 85.0556 97.5803 86.8941 95.6365 87.5726C93.9294 88.1685 92.0706 88.1685 90.3635 87.5726C88.4197 86.8941 86.7704 85.0556 83.4719 81.3785L32 24Z" fill="#334155" fill-opacity="0.2"/>
</g>
<g filter="url(#filter2_f_104_84)">
<path d="M24 24L162 24L102.362 87.9599C99.1076 91.4498 97.4806 93.1947 95.5783 93.8424C93.9065 94.4115 92.0935 94.4115 90.4217 93.8424C88.5194 93.1947 86.8924 91.4498 83.6383 87.9599L24 24Z" fill="#334155" fill-opacity="0.1"/>
</g>
<g filter="url(#filter3_f_104_84)">
<path d="M29 24L157 24L97.4282 89.1567C95.0493 91.7585 90.9507 91.7585 88.5718 89.1567L29 24Z" fill="#334155" fill-opacity="0.05"/>
</g>
<g filter="url(#filter4_f_104_84)">
<path d="M23 23L163 23L97.0827 84.2089C94.7806 86.3466 91.2194 86.3466 88.9173 84.2089L23 23Z" fill="#334155" fill-opacity="0.1"/>
</g>
</g>
<path d="M22.5 26L84.6546 79.3383C87.616 81.8797 89.0967 83.1504 90.7575 83.6339C92.2211 84.0601 93.7761 84.0592 95.2393 83.6314C96.8994 83.1459 98.3787 81.8736 101.337 79.3288L164.5 25" stroke="#475569" stroke-opacity="0.06"/>
<g filter="url(#filter5_i_104_84)">
<path d="M24.266 26.8124C23.2567 25.9433 22.7521 25.5087 22.7023 25.1303C22.6592 24.8025 22.781 24.4746 23.0275 24.2543C23.3121 24 23.9781 24 25.3101 24L160.69 24C162.022 24 162.688 24 162.972 24.2543C163.219 24.4746 163.341 24.8025 163.298 25.1303C163.248 25.5087 162.743 25.9433 161.734 26.8124L101.352 78.8077C98.389 81.3595 96.9073 82.6354 95.2444 83.1214C93.7788 83.5498 92.2212 83.5498 90.7556 83.1214C89.0927 82.6354 87.611 81.3595 84.6477 78.8077L24.266 26.8124Z" fill="url(#paint0_linear_104_84)"/>
</g>
<defs>
<filter id="filter0_f_104_84" x="20" y="20" width="146" height="67.2449" filterUnits="userSpaceOnUse" color-interpolation-filters="sRGB">
<feFlood flood-opacity="0" result="BackgroundImageFix"/>
<feBlend mode="normal" in="SourceGraphic" in2="BackgroundImageFix" result="shape"/>
<feGaussianBlur stdDeviation="2" result="effect1_foregroundBlur_104_84"/>
</filter>
<filter id="filter1_f_104_84" x="20" y="12" width="146" height="88.0195" filterUnits="userSpaceOnUse" color-interpolation-filters="sRGB">
<feFlood flood-opacity="0" result="BackgroundImageFix"/>
<feBlend mode="normal" in="SourceGraphic" in2="BackgroundImageFix" result="shape"/>
<feGaussianBlur stdDeviation="6" result="effect1_foregroundBlur_104_84"/>
</filter>
<filter id="filter2_f_104_84" x="0" y="0" width="186" height="118.269" filterUnits="userSpaceOnUse" color-interpolation-filters="sRGB">
<feFlood flood-opacity="0" result="BackgroundImageFix"/>
<feBlend mode="normal" in="SourceGraphic" in2="BackgroundImageFix" result="shape"/>
<feGaussianBlur stdDeviation="12" result="effect1_foregroundBlur_104_84"/>
</filter>
<filter id="filter3_f_104_84" x="19" y="14" width="148" height="87.1081" filterUnits="userSpaceOnUse" color-interpolation-filters="sRGB">
<feFlood flood-opacity="0" result="BackgroundImageFix"/>
<feBlend mode="normal" in="SourceGraphic" in2="BackgroundImageFix" result="shape"/>
<feGaussianBlur stdDeviation="5" result="effect1_foregroundBlur_104_84"/>
</filter>
<filter id="filter4_f_104_84" x="19" y="19" width="148" height="70.8122" filterUnits="userSpaceOnUse" color-interpolation-filters="sRGB">
<feFlood flood-opacity="0" result="BackgroundImageFix"/>
<feBlend mode="normal" in="SourceGraphic" in2="BackgroundImageFix" result="shape"/>
<feGaussianBlur stdDeviation="2" result="effect1_foregroundBlur_104_84"/>
</filter>
<filter id="filter5_i_104_84" x="22.6938" y="24" width="140.612" height="59.4427" filterUnits="userSpaceOnUse" color-interpolation-filters="sRGB">
<feFlood flood-opacity="0" result="BackgroundImageFix"/>
<feBlend mode="normal" in="SourceGraphic" in2="BackgroundImageFix" result="shape"/>
<feColorMatrix in="SourceAlpha" type="matrix" values="0 0 0 0 0 0 0 0 0 0 0 0 0 0 0 0 0 0 127 0" result="hardAlpha"/>
<feOffset dy="-1"/>
<feComposite in2="hardAlpha" operator="arithmetic" k2="-1" k3="1"/>
<feColorMatrix type="matrix" values="0 0 0 0 1 0 0 0 0 1 0 0 0 0 1 0 0 0 0.5 0"/>
<feBlend mode="normal" in2="shape" result="effect1_innerShadow_104_84"/>
</filter>
<linearGradient id="paint0_linear_104_84" x1="93" y1="24" x2="93" y2="86" gradientUnits="userSpaceOnUse">
<stop offset="0.25" stop-color="#FAFAFB"/>
<stop offset="1" stop-color="#F4F5F6"/>
</linearGradient>
</defs>
</svg>
